<svg width="26" height="26" viewBox="0 0 26 26" fill="none" xmlns="http://www.w3.org/2000/svg">
<path fill-rule="evenodd" clip-rule="evenodd" d="M1.61888 3.99812C2.01845 3.33526 4.22128 0.928967 5.79103 1.00161C6.26066 1.04182 6.6758 1.32461 7.0131 1.6541H7.01439C7.78759 2.41166 10.006 5.27067 10.1305 5.87256C10.438 7.34877 8.67755 8.19973 9.21593 9.6876C10.5885 13.046 12.9535 15.4108 16.3135 16.7819C17.8002 17.3216 18.6513 15.5626 20.1276 15.8687C20.7296 15.9945 23.5901 18.2114 24.3465 18.9859V18.9859C24.6747 19.3218 24.9601 19.7382 24.999 20.2078C25.0574 21.8617 22.5017 24.0942 22.0035 24.3796C20.8282 25.2215 19.2947 25.2059 17.4253 24.3368C12.2088 22.1666 3.87231 13.9878 1.66169 8.57461C0.815843 6.71574 0.758762 5.17208 1.61888 3.99812Z" stroke="#E2211C" stroke-width="1.5" stroke-linecap="round" stroke-linejoin="round"/>
<path opacity="0.5" d="M16.2407 1.31567C20.9169 1.83483 24.6091 5.52325 25.1346 10.1982" stroke="#E2211C" stroke-width="1.5" stroke-linecap="round" stroke-linejoin="round"/>
<path opacity="0.5" d="M16.2407 5.79102C18.4765 6.22681 20.2235 7.97375 20.6592 10.2095" stroke="#E2211C" stroke-width="1.5" stroke-linecap="round" stroke-linejoin="round"/>
</svg>
