<svg width="234" height="104" viewBox="0 0 234 104" fill="none" xmlns="http://www.w3.org/2000/svg">
<path fill-rule="evenodd" clip-rule="evenodd" d="M53.8689 41.6277C53.8689 38.8881 56.0898 36.6672 58.8294 36.6672H64.0769C66.2798 36.6672 68.1432 38.2964 68.4374 40.4795L68.6774 42.2598C71.2527 42.7973 70.8614 46.5882 68.2306 46.5882H58.8294C56.0898 46.5882 53.8689 44.3673 53.8689 41.6277Z" fill="#2165DB"/>
<path fill-rule="evenodd" clip-rule="evenodd" d="M96.8599 60.643H131.583V92.8862H96.8599V60.643Z" fill="#1A170F"/>
<ellipse cx="106.855" cy="84.5733" rx="10.8221" ry="18.143" fill="#31302D"/>
<rect x="106.219" y="66.4302" width="9.54895" height="36.286" fill="#31302D"/>
<ellipse cx="115.131" cy="84.5733" rx="10.8221" ry="18.143" fill="#53524D"/>
<ellipse cx="115.602" cy="85.1974" rx="7.02737" ry="13.228" fill="#31302D"/>
<mask id="mask0" mask-type="alpha" maskUnits="userSpaceOnUse" x="108" y="71" width="15" height="28">
<ellipse cx="115.602" cy="85.1974" rx="7.02737" ry="13.228" fill="white"/>
</mask>
<g mask="url(#mask0)">
<ellipse cx="113.287" cy="84.8915" rx="6.36597" ry="12.0953" fill="#E1E1F0"/>
<mask id="mask1" mask-type="alpha" maskUnits="userSpaceOnUse" x="106" y="72" width="14" height="25">
<ellipse cx="113.287" cy="84.8915" rx="6.36597" ry="12.0953" fill="white"/>
</mask>
<g mask="url(#mask1)">
<ellipse cx="110.559" cy="84.5856" rx="3.307" ry="6.614" fill="white"/>
</g>
</g>
<ellipse cx="39.0619" cy="84.5733" rx="10.8221" ry="18.143" fill="#31302D"/>
<rect x="38.4253" y="66.4302" width="9.54895" height="36.286" fill="#31302D"/>
<ellipse cx="47.3375" cy="84.5733" rx="10.8221" ry="18.143" fill="#53524D"/>
<ellipse cx="47.8089" cy="85.1974" rx="7.02737" ry="13.228" fill="#31302D"/>
<mask id="mask2" mask-type="alpha" maskUnits="userSpaceOnUse" x="40" y="71" width="15" height="28">
<ellipse cx="47.8089" cy="85.1974" rx="7.02737" ry="13.228" fill="white"/>
</mask>
<g mask="url(#mask2)">
<ellipse cx="45.4939" cy="84.8915" rx="6.36597" ry="12.0953" fill="#31302D"/>
<mask id="mask3" mask-type="alpha" maskUnits="userSpaceOnUse" x="39" y="72" width="13" height="25">
<ellipse cx="45.4939" cy="84.8915" rx="6.36597" ry="12.0953" fill="white"/>
</mask>
<g mask="url(#mask3)">
<ellipse cx="42.7657" cy="84.5856" rx="3.307" ry="6.614" fill="white"/>
</g>
</g>
<path fill-rule="evenodd" clip-rule="evenodd" d="M192.763 60.643H227.486V92.8862H192.763V60.643Z" fill="#1A170F"/>
<ellipse cx="139.099" cy="84.5733" rx="10.8221" ry="18.143" fill="#31302D"/>
<rect x="138.462" y="66.4302" width="9.54895" height="36.286" fill="#31302D"/>
<ellipse cx="147.374" cy="84.5733" rx="10.8221" ry="18.143" fill="#53524D"/>
<ellipse cx="147.845" cy="85.1974" rx="7.02737" ry="13.228" fill="#31302D"/>
<mask id="mask4" mask-type="alpha" maskUnits="userSpaceOnUse" x="140" y="71" width="15" height="28">
<ellipse cx="147.845" cy="85.1974" rx="7.02737" ry="13.228" fill="white"/>
</mask>
<g mask="url(#mask4)">
<ellipse cx="145.531" cy="84.8915" rx="6.36597" ry="12.0953" fill="#31302D"/>
<mask id="mask5" mask-type="alpha" maskUnits="userSpaceOnUse" x="139" y="72" width="13" height="25">
<ellipse cx="145.531" cy="84.8915" rx="6.36597" ry="12.0953" fill="white"/>
</mask>
<g mask="url(#mask5)">
<ellipse cx="142.802" cy="84.5856" rx="3.307" ry="6.614" fill="white"/>
</g>
</g>
<ellipse cx="202.758" cy="84.5733" rx="10.8221" ry="18.143" fill="#31302D"/>
<rect x="202.122" y="66.4302" width="9.54895" height="36.286" fill="#31302D"/>
<ellipse cx="211.034" cy="84.5733" rx="10.8221" ry="18.143" fill="#53524D"/>
<ellipse cx="211.505" cy="85.1974" rx="7.02737" ry="13.228" fill="#31302D"/>
<mask id="mask6" mask-type="alpha" maskUnits="userSpaceOnUse" x="204" y="71" width="15" height="28">
<ellipse cx="211.505" cy="85.1974" rx="7.02737" ry="13.228" fill="white"/>
</mask>
<g mask="url(#mask6)">
<ellipse cx="209.191" cy="84.8915" rx="6.36597" ry="12.0953" fill="#E1E1F0"/>
<mask id="mask7" mask-type="alpha" maskUnits="userSpaceOnUse" x="202" y="72" width="14" height="25">
<ellipse cx="209.191" cy="84.8915" rx="6.36597" ry="12.0953" fill="white"/>
</mask>
<g mask="url(#mask7)">
<ellipse cx="206.462" cy="84.5856" rx="3.307" ry="6.614" fill="white"/>
</g>
</g>
<path d="M18.0653 78.1917C17.9266 77.9976 18.0654 77.728 18.304 77.728H67.1118C67.3504 77.728 67.4891 77.9976 67.3505 78.1917C62.8631 84.474 55.6181 88.2025 47.8977 88.2025H37.518C29.7977 88.2025 22.5526 84.474 18.0653 78.1917Z" stroke="#467FFF" stroke-width="1.1"/>
<path fill-rule="evenodd" clip-rule="evenodd" d="M234 85.22C234 89.9105 230.198 93.713 225.507 93.713H224.906C224.456 93.713 224.092 93.3483 224.092 92.8984V79.652C224.092 72.1215 217.987 66.0169 210.456 66.0169C202.926 66.0169 196.821 72.1215 196.821 79.652V92.8984C196.821 93.3483 196.457 93.713 196.007 93.713H128.202C127.752 93.713 127.387 93.3483 127.387 92.8984V79.652C127.387 72.1215 121.282 66.0169 113.752 66.0169C106.221 66.0169 100.117 72.1215 100.117 79.652V92.8984C100.117 93.3483 99.7521 93.713 99.3022 93.713H18.2477C15.0907 93.713 12.5315 91.1537 12.5315 87.9968V87.5664C12.5315 87.2779 12.7653 87.0441 13.0538 87.0441C13.3422 87.0441 13.5761 86.8102 13.5761 86.5218V82.0391C13.5761 81.5554 13.4166 81.0851 13.1224 80.7011L12.5315 79.9299V75.5859C12.5315 74.7713 13.1919 74.111 14.0065 74.111C14.8211 74.111 15.4814 73.4506 15.4814 72.636V69.6138C15.4814 63.7745 19.238 58.598 24.7895 56.7873L53.5285 47.414C55.7447 46.6912 57.7299 45.3944 59.2824 43.6554L60.6017 42.1777C76.8802 23.9437 100.163 13.5183 124.606 13.5183H177.237C188.407 13.5183 198.701 19.5652 204.14 29.3211L210.303 40.3775C212.146 43.6836 215.635 45.7328 219.42 45.7328C225.184 45.7328 229.857 50.4058 229.857 56.1703V72.0396C229.857 73.1836 230.785 74.111 231.929 74.111C233.073 74.111 234 75.0384 234 76.1824V85.22Z" fill="#DD4C35"/>
<mask id="mask8" mask-type="alpha" maskUnits="userSpaceOnUse" x="12" y="13" width="222" height="81">
<path fill-rule="evenodd" clip-rule="evenodd" d="M234 85.22C234 89.9105 230.198 93.713 225.507 93.713H224.906C224.456 93.713 224.092 93.3483 224.092 92.8984V79.652C224.092 72.1215 217.987 66.0169 210.456 66.0169C202.926 66.0169 196.821 72.1215 196.821 79.652V92.8984C196.821 93.3483 196.457 93.713 196.007 93.713H128.202C127.752 93.713 127.387 93.3483 127.387 92.8984V79.652C127.387 72.1215 121.282 66.0169 113.752 66.0169C106.221 66.0169 100.117 72.1215 100.117 79.652V92.8984C100.117 93.3483 99.7521 93.713 99.3022 93.713H18.2477C15.0907 93.713 12.5315 91.1537 12.5315 87.9968V87.5664C12.5315 87.2779 12.7653 87.0441 13.0538 87.0441C13.3422 87.0441 13.5761 86.8102 13.5761 86.5218V82.0391C13.5761 81.5554 13.4166 81.0851 13.1224 80.7011L12.5315 79.9299V75.5859C12.5315 74.7713 13.1919 74.111 14.0065 74.111C14.8211 74.111 15.4814 73.4506 15.4814 72.636V69.6138C15.4814 63.7745 19.238 58.598 24.7895 56.7873L53.5285 47.414C55.7447 46.6912 57.7299 45.3944 59.2824 43.6554L60.6017 42.1777C76.8802 23.9437 100.163 13.5183 124.606 13.5183H177.237C188.407 13.5183 198.701 19.5652 204.14 29.3211L210.303 40.3775C212.146 43.6836 215.635 45.7328 219.42 45.7328C225.184 45.7328 229.857 50.4058 229.857 56.1703V72.0396C229.857 73.1836 230.785 74.111 231.929 74.111C233.073 74.111 234 75.0384 234 76.1824V85.22Z" fill="white"/>
</mask>
<g mask="url(#mask8)">
<path fill-rule="evenodd" clip-rule="evenodd" d="M10.8779 73.871H86.4613L104.917 71.3716V98.6735H10.8779V73.871Z" fill="#B6301A"/>
<rect opacity="0.485933" x="21.6257" y="87.099" width="42.1642" height="1.6535" rx="0.826749" fill="white"/>
<path fill-rule="evenodd" clip-rule="evenodd" d="M63.79 68.5777C63.79 64.6521 66.9724 61.4697 70.8981 61.4697H88.5439C90.3972 61.4697 91.8995 62.9721 91.8995 64.8253C91.8995 66.6402 90.4566 68.1262 88.6425 68.1795L64.1226 68.9007C63.9405 68.906 63.79 68.7599 63.79 68.5777Z" fill="white"/>
<path opacity="0.533715" fill-rule="evenodd" clip-rule="evenodd" d="M71.5681 79.0205C72.394 77.8642 73.7275 77.178 75.1485 77.178H93.9811C94.667 77.178 95.066 77.9533 94.6673 78.5114C90.0767 84.9382 82.665 88.7525 74.767 88.7525H67.236C66.1396 88.7525 65.5019 87.5132 66.1391 86.6211L71.5681 79.0205Z" fill="#070204"/>
<path opacity="0.533715" fill-rule="evenodd" clip-rule="evenodd" d="M74.1234 80.3829C74.9078 79.4023 76.0955 78.8315 77.3513 78.8315H79.0849C81.3679 78.8315 83.2186 80.6822 83.2186 82.9652C83.2186 85.2482 81.3679 87.099 79.0849 87.099H77.3513C73.8851 87.099 71.9581 83.0895 74.1234 80.3829Z" fill="#070204"/>
<path fill-rule="evenodd" clip-rule="evenodd" d="M253.015 86.8056C253.015 90.6204 249.923 93.713 246.108 93.713H94.2597C88.8468 93.713 84.4587 89.3249 84.4587 83.912V75.5859C84.4587 74.7713 85.1191 74.111 85.9337 74.111C86.7483 74.111 87.4087 73.4506 87.4087 72.636V69.6138C87.4087 63.7745 91.1652 58.598 96.7167 56.7873L125.461 47.4122C127.646 46.6997 129.517 45.2532 130.756 43.3183C142.652 24.7497 163.186 13.5183 185.238 13.5183H210.982C216.486 13.5183 221.412 16.9333 223.343 22.0873L230.87 42.1777C232.23 45.8078 235.699 48.2131 239.576 48.2131C244.71 48.2131 248.873 52.3755 248.873 57.51V77.8268C248.873 78.9708 249.8 79.8982 250.944 79.8982C252.088 79.8982 253.015 80.8256 253.015 81.9696V86.8056Z" fill="#FE5B41"/>
<path fill-rule="evenodd" clip-rule="evenodd" d="M91.8993 64.7767C91.8993 66.6187 90.4349 68.1268 88.5938 68.181L87.4084 68.215L87.4085 66.9671C87.4085 64.9722 88.0094 63.0833 89.0642 61.5029C90.6673 61.7324 91.8993 63.1107 91.8993 64.7767Z" fill="#FFA13E"/>
<path fill-rule="evenodd" clip-rule="evenodd" d="M133.823 43.5443C143.788 26.3822 162.134 15.8205 181.979 15.8205L188.242 15.8205C191.741 15.8205 194.966 17.7151 196.669 20.7717L205.545 36.6994C207.179 39.6323 205.059 43.2412 201.701 43.2412H159.828L155.591 45.9027L135.224 45.9688C133.978 45.9728 133.197 44.6223 133.823 43.5443Z" fill="#1A170F"/>
<path d="M225.006 58.429C225.006 55.9989 226.976 54.029 229.406 54.029H234.927V67.257H229.406C226.976 67.257 225.006 65.287 225.006 62.857V58.429Z" fill="#FF8300"/>
<path d="M226.659 58.429C226.659 55.9989 228.629 54.029 231.059 54.029H236.58V67.257H231.059C228.629 67.257 226.659 65.287 226.659 62.857V58.429Z" fill="white" fill-opacity="0.244619"/>
<path opacity="0.533715" fill-rule="evenodd" clip-rule="evenodd" d="M-3.05095 78.5114C-3.44963 77.9533 -3.05065 77.178 -2.36474 77.178H10.7935C12.6625 77.178 14.4164 78.0806 15.5027 79.6015L20.351 86.3891C21.0577 87.3783 20.3505 88.7525 19.1348 88.7525H16.8493C8.95139 88.7525 1.53963 84.9382 -3.05095 78.5114Z" fill="#070204"/>
<path opacity="0.533715" fill-rule="evenodd" clip-rule="evenodd" d="M12.946 80.3829C12.1615 79.4023 10.9738 78.8315 9.71807 78.8315H7.98448C5.70147 78.8315 3.85073 80.6822 3.85073 82.9652C3.85073 85.2482 5.70148 87.099 7.98448 87.099H9.71807C13.1842 87.099 15.1113 83.0895 12.946 80.3829Z" fill="#070204"/>
<path opacity="0.533715" fill-rule="evenodd" clip-rule="evenodd" d="M27.1431 65.0121C27.2979 63.9283 28.2262 63.1232 29.321 63.1232H58.773C60.1118 63.1232 61.1403 64.309 60.9509 65.6344L60.7299 67.1812C60.5853 68.1939 59.7617 68.9732 58.7426 69.0618L41.4677 70.564L28.8421 69.1611C27.6078 69.024 26.7315 67.8929 26.9072 66.6635L27.1431 65.0121Z" fill="#070204"/>
<path opacity="0.533715" fill-rule="evenodd" clip-rule="evenodd" d="M19.1501 81.4835C18.11 80.0273 19.1509 78.0047 20.9403 78.0047H65.3022C67.0916 78.0047 68.1325 80.0273 67.0924 81.4835L66.1016 82.8707C65.6886 83.4489 65.0218 83.792 64.3113 83.792H21.9312C21.2207 83.792 20.5539 83.4489 20.141 82.8707L19.1501 81.4835Z" fill="#070204"/>
<path fill-rule="evenodd" clip-rule="evenodd" d="M12.5315 61.4697H17.8592C21.7658 61.4697 24.9327 64.6366 24.9327 68.5432C24.9327 68.7377 24.7615 68.8876 24.5687 68.8619L12.5315 67.257L12.5315 61.4697Z" fill="white"/>
<path fill-rule="evenodd" clip-rule="evenodd" d="M182.842 41.6277H184.495L186.976 53.6156V92.0595H185.322V53.6156L182.842 41.6277Z" fill="black" fill-opacity="0.0900896"/>
<path fill-rule="evenodd" clip-rule="evenodd" d="M133.237 41.6277H134.89L137.371 53.6156V92.0595H135.717V53.6156L133.237 41.6277Z" fill="black" fill-opacity="0.0900896"/>
<path opacity="0.234003" fill-rule="evenodd" clip-rule="evenodd" d="M127.249 50.6635C131.256 49.6046 135.383 49.0685 139.528 49.0685L208.773 49.0685C209.618 49.0685 210.378 49.5831 210.692 50.3678C211.235 51.7254 210.235 53.2023 208.773 53.2023H135.46L127.873 54.0294C125.762 54.2595 125.196 51.206 127.249 50.6635Z" fill="white"/>
<path fill-rule="evenodd" clip-rule="evenodd" d="M138.881 39.7944C147.196 26.9104 161.137 18.7428 176.441 17.7896C177.151 17.7454 177.781 18.2407 177.906 18.9409L181.361 38.3522C181.601 39.7003 180.564 40.9377 179.195 40.9377H162.075C159.602 40.9377 157.212 41.8329 155.348 43.4578C153.483 45.0827 151.093 45.9779 148.62 45.9779H136.479C135.794 45.9779 135.38 45.2193 135.752 44.6436L138.881 39.7944Z" fill="#A1C3F0"/>
<mask id="mask9" mask-type="alpha" maskUnits="userSpaceOnUse" x="135" y="17" width="47" height="29">
<path fill-rule="evenodd" clip-rule="evenodd" d="M138.881 39.7944C147.196 26.9104 161.137 18.7428 176.441 17.7896C177.151 17.7454 177.781 18.2407 177.906 18.9409L181.361 38.3522C181.601 39.7003 180.564 40.9377 179.195 40.9377H162.075C159.602 40.9377 157.212 41.8329 155.348 43.4578C153.483 45.0827 151.093 45.9779 148.62 45.9779H136.479C135.794 45.9779 135.38 45.2193 135.752 44.6436L138.881 39.7944Z" fill="white"/>
</mask>
<g mask="url(#mask9)">
<path fill-rule="evenodd" clip-rule="evenodd" d="M136.401 41.4479C144.715 28.5639 158.656 20.3964 173.961 19.4431C174.671 19.3989 175.301 19.8942 175.425 20.5944L178.88 40.0057C179.12 41.3538 178.084 42.5912 176.714 42.5912H159.594C157.121 42.5912 154.732 43.4864 152.867 45.1113C151.003 46.7362 148.613 47.6314 146.14 47.6314H133.998C133.313 47.6314 132.9 46.8728 133.271 46.2971L136.401 41.4479Z" fill="#D2E2F8"/>
</g>
<path fill-rule="evenodd" clip-rule="evenodd" d="M139.024 41.9639C140.538 38.7319 143.784 36.6673 147.353 36.6673L156.192 36.6673C157.212 36.6673 158.039 37.4945 158.039 38.5149V44.108C158.039 45.4778 156.929 46.5883 155.559 46.5883H134.957C134.007 46.5883 133.237 45.8179 133.237 44.8677C133.237 44.0933 133.754 43.4144 134.501 43.2089L139.024 41.9639Z" fill="#CE351D"/>
<path fill-rule="evenodd" clip-rule="evenodd" d="M181.108 20.37C180.817 19.0013 181.861 17.712 183.26 17.712L184.529 17.712C189.423 17.712 193.914 20.4188 196.2 24.7451L201.387 34.5618C202.936 37.4921 200.811 41.0174 197.497 41.0174H187.284C186.245 41.0174 185.348 40.2912 185.132 39.2754L181.108 20.37Z" fill="#A1C3F0"/>
<mask id="mask10" mask-type="alpha" maskUnits="userSpaceOnUse" x="181" y="17" width="21" height="25">
<path fill-rule="evenodd" clip-rule="evenodd" d="M181.108 20.37C180.817 19.0013 181.861 17.712 183.26 17.712L184.529 17.712C189.423 17.712 193.914 20.4188 196.2 24.7451L201.387 34.5618C202.936 37.4921 200.811 41.0174 197.497 41.0174H187.284C186.245 41.0174 185.348 40.2912 185.132 39.2754L181.108 20.37Z" fill="white"/>
</mask>
<g mask="url(#mask10)">
<path fill-rule="evenodd" clip-rule="evenodd" d="M179.455 22.0235C179.164 20.6548 180.207 19.3655 181.607 19.3655L182.876 19.3655C187.769 19.3655 192.261 22.0723 194.547 26.3986L199.734 36.2153C201.282 39.1456 199.158 42.6709 195.844 42.6709H185.631C184.592 42.6709 183.695 41.9447 183.479 40.9289L179.455 22.0235Z" fill="#D2E2F8"/>
</g>
<path opacity="0.533715" fill-rule="evenodd" clip-rule="evenodd" d="M166.307 58.1627C166.307 57.2495 167.047 56.5092 167.96 56.5092H176.228C177.141 56.5092 177.881 57.2495 177.881 58.1627C177.881 59.0759 177.141 59.8162 176.228 59.8162H167.96C167.047 59.8162 166.307 59.0759 166.307 58.1627Z" fill="#413185"/>
<path fill-rule="evenodd" clip-rule="evenodd" d="M166.307 57.336C166.307 56.4228 167.047 55.6825 167.96 55.6825H176.228C177.141 55.6825 177.881 56.4228 177.881 57.336C177.881 58.2492 177.141 58.9895 176.228 58.9895H167.96C167.047 58.9895 166.307 58.2492 166.307 57.336Z" fill="#F49F92"/>
<path fill-rule="evenodd" clip-rule="evenodd" d="M124.583 71.3812L127.077 75.2765C130.307 80.3201 135.88 83.3753 141.869 83.3855L170.879 83.4351C174.459 83.4412 177.987 82.5737 181.155 80.9078L200.829 70.564V98.6735H123.339L124.583 71.3812Z" fill="#CE361D"/>
<path fill-rule="evenodd" clip-rule="evenodd" d="M136.211 89.5792C135.63 89.5792 135.16 89.1086 135.16 88.528C135.16 87.9474 135.63 87.4767 136.211 87.4767H181.208L189.258 81.5458C190.71 80.4755 192.763 81.5126 192.763 83.3169V87.3792C192.763 88.5943 191.778 89.5792 190.563 89.5792H136.211Z" fill="#F49F92"/>
<path opacity="0.533715" fill-rule="evenodd" clip-rule="evenodd" d="M190.108 88.009C187.931 88.009 187.076 85.1859 188.888 83.9785L189.342 83.6752C190.804 82.7005 192.763 83.7486 192.763 85.5057V85.809C192.763 87.024 191.778 88.009 190.563 88.009H190.108Z" fill="#070204"/>
<path fill-rule="evenodd" clip-rule="evenodd" d="M222.526 73.871L243.195 73.871V94.5397H222.526V73.871Z" fill="#CE351D"/>
<path fill-rule="evenodd" clip-rule="evenodd" d="M67.154 39.7346C79.6916 25.189 97.9426 16.8253 117.146 16.8253L148.626 16.8253C143.447 19.0108 134.122 33.1546 129.59 40.4194C127.938 43.0674 125.057 44.7128 121.936 44.7128H67.6638C65.7814 44.7128 64.7684 42.5023 65.9974 41.0765L67.154 39.7346Z" fill="#A1C3F0"/>
<mask id="mask11" mask-type="alpha" maskUnits="userSpaceOnUse" x="65" y="16" width="84" height="29">
<path fill-rule="evenodd" clip-rule="evenodd" d="M67.154 39.7346C79.6916 25.189 97.9426 16.8253 117.146 16.8253L148.626 16.8253C143.447 19.0108 134.122 33.1546 129.59 40.4194C127.938 43.0674 125.057 44.7128 121.936 44.7128H67.6638C65.7814 44.7128 64.7684 42.5023 65.9974 41.0765L67.154 39.7346Z" fill="white"/>
</mask>
<g mask="url(#mask11)">
<path fill-rule="evenodd" clip-rule="evenodd" d="M63.0202 41.3881C75.5578 26.8425 93.8089 18.4788 113.012 18.4788L143.665 18.4788C138.542 21.8481 129.801 35.1599 125.454 42.1023C123.806 44.7355 120.936 46.3663 117.829 46.3663H63.53C61.6476 46.3663 60.6346 44.1558 61.8636 42.73L63.0202 41.3881Z" fill="#D2E2F8"/>
<path fill-rule="evenodd" clip-rule="evenodd" d="M60.4832 40.801H129.93V46.5883H60.4832V40.801Z" fill="#153165"/>
</g>
<path fill-rule="evenodd" clip-rule="evenodd" d="M85.9821 58.1628L120.15 46.6482H60.4831L24.9329 58.1628H85.9821Z" fill="#1A170F"/>
<mask id="mask12" mask-type="alpha" maskUnits="userSpaceOnUse" x="24" y="46" width="97" height="13">
<path fill-rule="evenodd" clip-rule="evenodd" d="M85.9821 58.1628L120.15 46.6482H60.4831L24.9329 58.1628H85.9821Z" fill="white"/>
</mask>
<g mask="url(#mask12)">
<path fill-rule="evenodd" clip-rule="evenodd" d="M98.6544 49.0685V60.643H62.7727V52.4355L89.2688 52.7889L98.6544 49.0685Z" fill="#1A3972"/>
<path fill-rule="evenodd" clip-rule="evenodd" d="M54.0726 49.0685L46.5962 51.6087V59.5831H66.8803L67.0971 49.0685H54.0726Z" fill="#AEAFBE"/>
<path fill-rule="evenodd" clip-rule="evenodd" d="M46.4285 51.5487H63.5248V59.1559H46.4285V51.5487Z" fill="#53524D"/>
<ellipse cx="57.1321" cy="50.3147" rx="2.89362" ry="0.826749" fill="#818292"/>
<path fill-rule="evenodd" clip-rule="evenodd" d="M54.2385 48.6612H60.0258V50.3147H54.2385V48.6612Z" fill="#818292"/>
<ellipse cx="57.1321" cy="48.6612" rx="2.89362" ry="0.826749" fill="#E1E1F0"/>
<path fill-rule="evenodd" clip-rule="evenodd" d="M45.0088 52.6892L35.2793 55.6217V64.0556L57.1882 64.8851V52.6892H45.0088Z" fill="#E1E1F0"/>
<path fill-rule="evenodd" clip-rule="evenodd" d="M101.197 49.8953L93.9224 52.8027V60.4098H114.005L114.222 49.8953H101.197Z" fill="#AEAFBE"/>
<ellipse cx="104.257" cy="51.1414" rx="2.89362" ry="0.826749" fill="#818292"/>
<path fill-rule="evenodd" clip-rule="evenodd" d="M101.363 49.4879H107.15V51.1414H101.363V49.4879Z" fill="#818292"/>
<ellipse cx="104.257" cy="49.4879" rx="2.89362" ry="0.826749" fill="#E1E1F0"/>
<path fill-rule="evenodd" clip-rule="evenodd" d="M93.9224 52.8026H111.019V60.4098H93.9224V52.8026Z" fill="#818292"/>
<path fill-rule="evenodd" clip-rule="evenodd" d="M57.1882 52.777L49.2593 55.6695L49.2823 61.0082L57.1882 60.9845V52.777Z" fill="#818292"/>
<path d="M39.0994 57.4111V60.7241" stroke="#FF5146" stroke-width="7.7" stroke-linecap="round" stroke-linejoin="round"/>
<path d="M44.8868 57.4111V60.7241" stroke="#FF5146" stroke-width="7.7" stroke-linecap="round" stroke-linejoin="round"/>
<path fill-rule="evenodd" clip-rule="evenodd" d="M71.2308 49.1285L99.3403 47.475V49.1285L89.0878 53.2622H61.3098L61.3098 51.6087L71.2308 49.1285Z" fill="#E1E1F0"/>
<path fill-rule="evenodd" clip-rule="evenodd" d="M71.2308 47.475H99.3403L89.0878 51.6087H61.3098L71.2308 47.475Z" fill="#AEAFBE"/>
<path fill-rule="evenodd" clip-rule="evenodd" d="M67.9238 52.4355H68.7506C74.6864 52.4355 79.4983 57.2474 79.4983 63.1832H67.9238V52.4355Z" fill="#818292"/>
<path d="M62.1365 58.1628C62.1365 54.9666 64.7275 52.3755 67.9237 52.3755C71.1199 52.3755 73.711 54.9666 73.711 58.1628V63.95H62.1365V58.1628Z" fill="#E1E1F0"/>
<rect x="63.4187" y="57.8808" width="5.78725" height="5.78725" rx="2.2" transform="rotate(-46 63.4187 57.8808)" fill="#818292"/>
<path fill-rule="evenodd" clip-rule="evenodd" d="M67.4383 54.8401H67.0256V55.6668H67.4383L67.4383 55.6668L67.4383 55.6668H67.4384V55.6668L67.7963 55.4601V55.0467L67.4384 54.8401V54.8401H67.4383Z" fill="#665E5E"/>
<path fill-rule="evenodd" clip-rule="evenodd" d="M67.3824 55.0522H67.7964V55.4601H67.3824V55.0522Z" fill="#454545"/>
<path fill-rule="evenodd" clip-rule="evenodd" d="M67.0257 54.8401L67.3837 55.0467V55.4601L67.0257 55.6668L66.6677 55.4601V55.0467L67.0257 54.8401Z" fill="#9F9F9F"/>
<path fill-rule="evenodd" clip-rule="evenodd" d="M64.9579 57.3203H64.5452V58.1471H64.9579V58.147L65.3159 57.9404V57.527L64.9579 57.3203V57.3203H64.9579Z" fill="#665E5E"/>
<path fill-rule="evenodd" clip-rule="evenodd" d="M64.9019 57.5324H65.3159V57.9404H64.9019V57.5324Z" fill="#454545"/>
<path fill-rule="evenodd" clip-rule="evenodd" d="M64.5452 57.3203L64.9032 57.527V57.9404L64.5452 58.1471L64.1872 57.9404V57.527L64.5452 57.3203Z" fill="#9F9F9F"/>
<path fill-rule="evenodd" clip-rule="evenodd" d="M70.7452 57.3203H70.3325V58.1471H70.7453V58.147L71.1032 57.9404V57.527L70.7453 57.3203V57.3203H70.7452Z" fill="#665E5E"/>
<path fill-rule="evenodd" clip-rule="evenodd" d="M70.6893 57.5324H71.1033V57.9404H70.6893V57.5324Z" fill="#454545"/>
<path fill-rule="evenodd" clip-rule="evenodd" d="M70.3326 57.3203L70.6906 57.527V57.9404L70.3326 58.1471L69.9746 57.9404V57.527L70.3326 57.3203Z" fill="#9F9F9F"/>
<circle cx="67.3756" cy="57.8093" r="1.24012" fill="#454545"/>
<path d="M84.1538 51.663C86.4614 51.663 88.3432 53.4857 88.4382 55.7699L88.442 55.9511V62.4746H86.3751V55.9511C86.3751 54.7244 85.3806 53.7299 84.1538 53.7299C82.9743 53.7299 82.0094 54.6493 81.937 55.8106L81.9326 55.9511V63.1592H79.8657V55.9511C79.8657 53.5829 81.7856 51.663 84.1538 51.663Z" fill="#FF5146"/>
</g>
</g>
<path fill-rule="evenodd" clip-rule="evenodd" d="M93.085 8.55777C93.8134 8.55777 94.4947 8.91835 94.9043 9.52074L120.149 46.6482H60.4829L35.6935 12.0388C34.6508 10.583 35.6914 8.55777 37.4821 8.55777L93.085 8.55777Z" fill="#FE5B41"/>
<mask id="mask13" mask-type="alpha" maskUnits="userSpaceOnUse" x="35" y="8" width="86" height="39">
<path fill-rule="evenodd" clip-rule="evenodd" d="M93.085 8.55777C93.8134 8.55777 94.4947 8.91835 94.9043 9.52074L120.149 46.6482H60.4829L35.6935 12.0388C34.6508 10.583 35.6914 8.55777 37.4821 8.55777L93.085 8.55777Z" fill="white"/>
</mask>
<g mask="url(#mask13)">
<path fill-rule="evenodd" clip-rule="evenodd" d="M34.4656 8.9727L119.653 46.8934L102.59 1.40993L34.4656 8.9727Z" fill="black" fill-opacity="0.0900896"/>
</g>
<path fill-rule="evenodd" clip-rule="evenodd" d="M60.483 45.7775L58.2771 47.8251L46.9301 37.494L42.7834 26.7762L47.3955 23.3249L51.4678 34.2501L60.483 45.7775Z" fill="#E7A079"/>
<path fill-rule="evenodd" clip-rule="evenodd" d="M47.4555 19.3951L50.641 30.2453L44.1258 32.8255L41.9065 28.2777L47.4555 19.3951Z" fill="#EDEDED"/>
<path fill-rule="evenodd" clip-rule="evenodd" d="M59.2682 48.6984C58.3906 48.1028 58.1285 46.8536 58.9334 46.1628C59.7165 45.4905 60.9306 45.8798 61.4302 46.7829C61.5831 47.0591 61.7523 47.3051 61.9334 47.4749C62.182 47.708 65.7855 50.0674 66.2602 50.3906C66.9751 50.8773 69.8722 51.9141 69.762 52.3519C69.6518 52.7897 68.12 52.3648 66.1354 51.8492C65.4075 51.66 63.2163 50.7885 63.2163 50.7885C63.2163 50.7885 64.148 52.9178 63.7347 53.0388C63.5229 53.1008 63.1248 52.575 62.5283 52.1024C61.5727 51.3455 60.274 50.3223 59.5587 48.9668C59.5172 48.888 59.4123 48.7961 59.2682 48.6984Z" fill="#FF9251"/>
<path fill-rule="evenodd" clip-rule="evenodd" d="M52.2568 15.3435L48.2768 11.2221L44.1531 16.108L46.3472 22.4531L52.2568 15.3435Z" fill="#FAAD82"/>
<mask id="mask14" mask-type="alpha" maskUnits="userSpaceOnUse" x="44" y="11" width="9" height="12">
<path fill-rule="evenodd" clip-rule="evenodd" d="M52.2568 15.3435L48.2768 11.2221L44.1531 16.108L46.3472 22.4531L52.2568 15.3435Z" fill="white"/>
</mask>
<g mask="url(#mask14)">
<path fill-rule="evenodd" clip-rule="evenodd" d="M47.2356 21.5985L48.1902 16.1071L50.4272 18.5165L47.2356 21.5985Z" fill="black" fill-opacity="0.143384"/>
</g>
<path fill-rule="evenodd" clip-rule="evenodd" d="M60.2224 14.2109L52.831 6.55691L49.0344 10.2233C46.5789 12.5945 46.5106 16.5074 48.8818 18.9629C50.5927 20.7346 53.4159 20.7839 55.1875 19.073L55.3459 18.9201C56.4012 20.0124 56.694 18.5586 57.2093 17.1206L60.2224 14.2109Z" fill="#FAAD82"/>
<mask id="mask15" mask-type="alpha" maskUnits="userSpaceOnUse" x="47" y="6" width="14" height="15">
<path fill-rule="evenodd" clip-rule="evenodd" d="M60.2224 14.2109L52.831 6.55691L49.0344 10.2233C46.5789 12.5945 46.5106 16.5074 48.8818 18.9629C50.5927 20.7346 53.4159 20.7839 55.1875 19.073L55.3459 18.9201C56.4012 20.0124 56.694 18.5586 57.2093 17.1206L60.2224 14.2109Z" fill="white"/>
</mask>
<g mask="url(#mask15)">
<path d="M53.7489 19.8147C53.5346 19.6105 53.357 19.3675 53.2248 19.0764" stroke="#AE6F6F" stroke-width="1.21" stroke-linecap="round" stroke-linejoin="round"/>
<circle r="0.454712" transform="matrix(-0.694658 -0.71934 -0.71934 0.694658 56.0604 16.3718)" fill="#794C4C"/>
</g>
<path fill-rule="evenodd" clip-rule="evenodd" d="M50.7524 10.2958L50.1772 9.70006C49.3921 8.88714 48.0967 8.86453 47.2838 9.64955C46.4709 10.4346 46.4483 11.73 47.2333 12.5429L47.8086 13.1386L50.7524 10.2958Z" fill="#FAAD82"/>
<path fill-rule="evenodd" clip-rule="evenodd" d="M55.7725 10.7106C55.7725 10.7106 49.9402 12.4002 49.8276 12.2837C49.715 12.1671 50.4615 9.99445 50.4615 9.99445C49.9765 9.49226 49.0789 8.83418 47.9788 9.19427C47.9788 9.19427 50.92 3.61804 54.855 5.18473C58.7899 6.75143 60.2256 8.23815 60.7884 9.98807C61.3511 11.738 60.7909 14.7996 59.7862 14.3748C58.7816 13.9499 55.7725 10.7106 55.7725 10.7106Z" fill="#794C4C"/>
<path fill-rule="evenodd" clip-rule="evenodd" d="M58.3627 15.9872C58.4928 15.8616 58.4964 15.6545 58.3708 15.5245L57.0272 14.1331C56.8327 13.9316 56.5117 13.926 56.3102 14.1206C56.0819 14.3411 56.11 14.7149 56.3689 14.8987L57.946 16.0186C58.0744 16.1098 58.2495 16.0966 58.3627 15.9872Z" fill="#794C4C"/>
<path d="M48.8206 9.69769C50.0472 10.6165 49.204 11.68 48.4339 11.9526" stroke="#AE6F6F" stroke-width="1.21" stroke-linecap="round" stroke-linejoin="round"/>
<path fill-rule="evenodd" clip-rule="evenodd" d="M49.3735 6.74211L60.2496 14.764C62.1872 12.2607 61.6476 8.64731 59.0633 6.81923L57.3431 5.60247C54.8051 3.80716 51.3066 4.30743 49.3735 6.74211Z" fill="#EDEDED"/>
<path fill-rule="evenodd" clip-rule="evenodd" d="M54.5061 10.5418C54.5061 10.5418 62.8783 11.6357 63.6183 13.7722C64.2983 15.7356 60.2495 14.764 60.2495 14.764L54.5061 10.5418Z" fill="#C6627E"/>
<path fill-rule="evenodd" clip-rule="evenodd" d="M20.8235 35.0426C20.8235 35.0426 31.0245 19.8103 34.5818 17.3508C37.1746 15.5582 41.2232 15.3976 43.2281 15.4423C43.983 15.4592 44.6375 15.9164 45.0055 16.5758C46.384 19.046 47.7619 20.6713 47.7619 20.6713L47.9839 20.5013C47.9839 20.5013 48.1978 21.296 48.08 21.641L44.3679 32.5168L27.8222 42.1556L20.8235 35.0426Z" fill="#EDEDED"/>
<path fill-rule="evenodd" clip-rule="evenodd" d="M37.7189 20.0587L30.8176 30.2343L40.1344 34.479L47.0022 25.9853L43.7413 20.4814L37.7189 20.0587Z" fill="black" fill-opacity="0.143384"/>
<path fill-rule="evenodd" clip-rule="evenodd" d="M27.8392 45.5359L20.8236 69.7263L9.22453 94.9435L2.44214 93.7734L10.1427 68.3664L14.7767 42.1556L27.8392 45.5359Z" fill="#3893D1"/>
<path fill-rule="evenodd" clip-rule="evenodd" d="M41.4641 31.0367C41.4641 31.0367 48.7162 18.6257 43.6028 15.5518C38.4646 12.463 29.3188 21.6452 22.3724 30.1601C16.2075 37.717 15.4719 48.1278 19.4419 57.0357L24.5799 68.5645L28.7477 95.3876H35.237L35.0996 67.9225L31.4791 45.0536C31.4791 45.0536 41.9166 35.5701 44.0417 33.1436C46.1669 30.7172 48.565 20.9601 48.565 20.9601L47.9797 20.4102C47.3121 24.3936 45.5357 28.8705 43.6028 31.9469L41.4641 31.0367ZM38.1825 31.8988C33.783 31.0996 30.2052 29.1958 28.2402 25.1243C28.2402 25.1243 38.4706 13.2774 42.9688 16.3729C47.467 19.4684 38.1825 31.8988 38.1825 31.8988Z" fill="#42ACF5"/>
<path fill-rule="evenodd" clip-rule="evenodd" d="M43.0686 100.851C42.9631 100.605 40.1485 98.209 37.1581 98.6989L35.8244 97.6234L36.2536 95.3665H28.5802V100.481C28.5802 101.818 29.6637 102.901 31.0002 102.901H41.9273C42.5681 102.901 43.1015 102.401 43.1129 101.761C43.1203 101.348 43.1138 100.956 43.0686 100.851Z" fill="#FF9251"/>
<path d="M28.8394 101.62H42.8833" stroke="#C36A34" stroke-width="1.21" stroke-linecap="square" stroke-linejoin="round"/>
<path fill-rule="evenodd" clip-rule="evenodd" d="M15.2395 100.945C15.1966 100.68 13.0452 97.6747 10.0251 97.4266L8.99124 96.0604L9.95371 93.9743L2.50824 92.118L1.27092 97.0806C0.947582 98.3774 1.73675 99.6908 3.03358 100.014L13.6361 102.658C14.2579 102.813 14.8963 102.457 15.0624 101.838C15.1694 101.439 15.2578 101.058 15.2395 100.945Z" fill="#FF9251"/>
<path d="M1.24685 98.2483L14.8736 101.646" stroke="#C36A34" stroke-width="1.21" stroke-linecap="square" stroke-linejoin="round"/>
<path fill-rule="evenodd" clip-rule="evenodd" d="M56.3064 52.9845C56.3198 52.8904 56.3772 52.8097 56.4571 52.7728L56.9146 52.5612C57.2776 52.3933 57.6873 52.45 57.9894 52.71C58.1774 52.8718 58.3059 53.097 58.3615 53.3472L65.9626 54.4213C66.0872 54.2329 66.2588 54.0828 66.4605 53.994C66.8258 53.8331 67.2343 53.8978 67.5321 54.1637L67.9074 54.499C67.9729 54.5575 68.0041 54.6513 67.9892 54.7452L67.9823 54.791L67.0054 54.6172C66.7749 54.576 66.5511 54.7368 66.4832 54.9824L66.4711 55.0363C66.4262 55.2935 66.5637 55.5364 66.7831 55.6035L66.8313 55.6151L67.8239 55.7919L67.8188 55.8214C67.8039 55.9153 67.7452 55.9949 67.6649 56.0303L67.2043 56.2331C66.8389 56.3941 66.4304 56.3294 66.1327 56.0634C65.9473 55.8979 65.8224 55.67 65.7709 55.4186L58.1858 54.347C58.064 54.538 57.8946 54.6915 57.6941 54.7843C57.3311 54.9521 56.9214 54.8954 56.6193 54.6354L56.2385 54.3077C56.1721 54.2505 56.1394 54.1573 56.1528 54.0632L56.159 54.0173L57.139 54.1721C57.3703 54.2087 57.5917 54.0438 57.6557 53.797L57.667 53.7429C57.7078 53.485 57.5665 53.245 57.3459 53.1822L57.2975 53.1715L56.3017 53.014L56.3064 52.9845Z" fill="#29C0B4"/>
<path fill-rule="evenodd" clip-rule="evenodd" d="M56.2417 53.1397C56.2551 53.0456 56.3125 52.9649 56.3923 52.928L56.8499 52.7163C57.2129 52.5485 57.6226 52.6052 57.9247 52.8652C58.1127 53.027 58.2412 53.2522 58.2968 53.5024L65.8978 54.5765C66.0225 54.388 66.1941 54.238 66.3957 54.1492C66.7611 53.9883 67.1696 54.053 67.4673 54.3189L67.8427 54.6541C67.9082 54.7126 67.9393 54.8065 67.9245 54.9004L67.9176 54.9462L66.9407 54.7723C66.7102 54.7312 66.4864 54.892 66.4185 55.1376L66.4064 55.1915C66.3615 55.4487 66.499 55.6916 66.7184 55.7587L66.7666 55.7703L67.7592 55.9471L67.754 55.9766C67.7392 56.0704 67.6805 56.1501 67.6001 56.1855L67.1396 56.3883C66.7742 56.5492 66.3657 56.4845 66.068 56.2186C65.8826 56.0531 65.7577 55.8252 65.7061 55.5738L58.1211 54.5022C57.9993 54.6932 57.8299 54.8467 57.6293 54.9394C57.2664 55.1073 56.8567 55.0506 56.5546 54.7906L56.1738 54.4629C56.1074 54.4057 56.0747 54.3125 56.0881 54.2184L56.0943 54.1725L57.0743 54.3273C57.3056 54.3639 57.5269 54.1989 57.591 53.9521L57.6023 53.8981C57.6431 53.6402 57.5017 53.4001 57.2812 53.3374L57.2328 53.3267L56.237 53.1692L56.2417 53.1397Z" fill="white"/>
<path fill-rule="evenodd" clip-rule="evenodd" d="M56.8706 49.3525L50.1575 38.4207C49.8597 37.9358 49.6097 37.4232 49.4109 36.89L44.3921 23.4295L37.7567 21.7751L44.3264 39.0528C44.692 40.0143 45.2234 40.9043 45.8963 41.6822L54.2625 51.3541L56.8706 49.3525Z" fill="#FAAD82"/>
<path fill-rule="evenodd" clip-rule="evenodd" d="M44.0011 20.7874C43.1315 18.5546 40.5267 17.5577 38.3887 18.6394C36.5473 19.5709 35.6985 21.7362 36.4162 23.671L40.4833 34.6345C42.6763 33.8831 46.139 32.418 48.041 31.1606L44.0011 20.7874Z" fill="#EDEDED"/>
<path fill-rule="evenodd" clip-rule="evenodd" d="M58.7666 50.7476C58.7666 50.7476 60.2766 50.813 61.5283 51.6572C62.0484 52.008 63.9014 53.4966 63.9014 53.4966C64.2584 53.7534 63.96 54.3599 63.1779 54.1076C63.1779 54.1076 62.1509 53.868 61.6582 53.7287L63.2236 55.6944C63.2236 55.6944 64.0395 56.6161 63.4919 57.0618C62.9443 57.5075 61.7802 56.0607 61.2487 55.4606C61.2487 55.4606 63.1371 57.7392 62.6126 58.1572C62.0881 58.5752 60.4041 56.4616 60.4041 56.4616C61.116 57.3009 61.6617 58.1028 61.2487 58.4657C60.8977 58.7741 59.3075 57.1665 59.3075 57.1665C59.7038 57.6274 60.203 58.1248 59.7738 58.4657C59.3446 58.8066 59.1166 58.487 58.3994 57.9142C57.6822 57.3414 55.2306 53.036 55.2306 53.036L54.7125 52.484C53.8621 51.5779 53.9484 50.1433 54.9011 49.3456C55.8661 48.5376 57.3146 48.7211 58.0476 49.7442L58.7666 50.7476Z" fill="#FF9251"/>
<path fill-rule="evenodd" clip-rule="evenodd" d="M95.2346 92.7772C95.2378 91.5599 94.2519 90.5713 93.0346 90.5713H67.9247V95.9451C67.9247 100.028 71.2342 103.337 75.3167 103.337H87.8341C91.9089 103.337 95.2152 100.04 95.2261 95.9648L95.2346 92.7772Z" fill="#F36155"/>
<path fill-rule="evenodd" clip-rule="evenodd" d="M88.2957 90.5713H63.1799C61.9648 90.5713 60.9799 91.5563 60.9799 92.7713V95.9451C60.9799 100.028 64.2894 103.337 68.3719 103.337H80.8893C84.9641 103.337 88.2704 100.04 88.2813 95.9648L88.2957 90.5713Z" fill="#E3453B"/>
<path fill-rule="evenodd" clip-rule="evenodd" d="M66.8378 78.5008C65.3385 78.5008 64.1166 79.6886 64.0619 81.1745L64.06 81.2841L64.062 86.1731C64.063 88.6025 66.0326 90.5713 68.462 90.5713H89.7134C94.5735 90.5713 98.5134 86.6314 98.5134 81.7713L98.5134 81.2786C98.5134 79.7445 97.2697 78.5008 95.7355 78.5008H66.8378Z" fill="#F36155"/>
<path fill-rule="evenodd" clip-rule="evenodd" d="M67.6645 79.3275C66.1652 79.3275 64.9433 80.5153 64.8885 82.0013L64.8866 82.1108L64.8904 90.5713H94.6621L94.6621 82.1054C94.6621 80.5712 93.4184 79.3275 91.8842 79.3275H67.6645Z" fill="#AC3B28"/>
<path fill-rule="evenodd" clip-rule="evenodd" d="M70.9715 79.3275C69.4722 79.3275 68.2503 80.5153 68.1955 82.0013L68.1936 82.1108L68.1974 90.5713H94.6621L94.6621 82.1054C94.6621 80.5712 93.4184 79.3275 91.8842 79.3275L70.9715 79.3275Z" fill="#892D1D"/>
<rect width="3.24086" height="2.77788" rx="1.232" transform="matrix(-1 0 0 1 83.1689 90.0091)" fill="#D8D8D8"/>
<rect width="3.24086" height="2.77788" rx="1.232" transform="matrix(-1 0 0 1 82.7061 90.0091)" fill="white"/>
<rect width="3.24086" height="2.77788" rx="1.232" transform="matrix(-1 0 0 1 68.8167 90.0091)" fill="#D8D8D8"/>
<rect width="3.24086" height="2.77788" rx="1.232" transform="matrix(-1 0 0 1 68.3535 90.0091)" fill="white"/>
</svg>
