<svg width="170" height="138" viewBox="0 0 170 138" fill="none" xmlns="http://www.w3.org/2000/svg">
<path d="M9.99958 125.042C5.53514 119.975 6.02693 112.221 11.094 107.756L13.4018 105.725C14.3854 104.858 15.887 104.953 16.7537 105.936C17.6204 106.92 17.5256 108.422 16.542 109.288L14.2343 111.32C11.1323 114.053 10.832 118.798 13.5651 121.9C16.2982 125.001 21.0428 125.302 24.1447 122.569L135.359 27.6564C136.342 26.7898 137.844 26.8845 138.711 27.8681C139.577 28.8517 139.483 30.3533 138.499 31.2199L27.2849 126.132C22.2178 130.599 14.464 130.109 9.99958 125.042Z" fill="#2E2E2E"/>
<path opacity="0.4" d="M170 133.086C170 135.261 132.087 137.022 85.3206 137.022C38.5538 137.022 0.641357 135.259 0.641357 133.086C0.641357 130.911 39.3016 130.55 86.0684 130.55C132.837 130.55 170 130.911 170 133.086Z" fill="#787879"/>
<path d="M32.9931 106.966H18.4871C17.8764 106.966 17.3806 107.462 17.3806 108.073V132.677C17.3806 133.287 17.8764 133.783 18.4871 133.783H32.9931C33.6038 133.783 34.0996 133.287 34.0996 132.677V108.075C34.1016 107.462 33.6058 106.966 32.9931 106.966Z" fill="#2B2B2B"/>
<path d="M120.059 107.007H105.555C104.944 107.007 104.446 107.502 104.446 108.113V132.717C104.446 133.328 104.942 133.824 105.553 133.824H120.057C120.667 133.824 121.163 133.328 121.163 132.715V108.115C121.165 107.502 120.669 107.007 120.059 107.007Z" fill="#2B2B2B"/>
<path d="M17.9852 82.3968H25.1827C25.5475 82.3968 25.8499 82.6769 25.8801 83.0397L25.8821 83.0539C25.9567 83.9971 26.2026 84.9182 26.6037 85.7749L27.8815 88.4938C28.0468 88.8425 27.8956 89.2597 27.547 89.425L25.6443 90.3199C25.2956 90.4852 24.8784 90.334 24.7131 89.9853L23.9835 88.4354C23.7114 87.8569 23.1309 87.4881 22.492 87.4881H18.7692C18.4387 87.4881 18.1545 87.2563 18.0839 86.9338L17.2999 83.2413C17.2092 82.8079 17.5418 82.3968 17.9852 82.3968Z" fill="#EE2424"/>
<path d="M120.732 82.3968H113.535C113.17 82.3968 112.867 82.6769 112.837 83.0397C112.761 83.9931 112.515 84.9243 112.108 85.789L110.836 88.4938C110.672 88.8425 110.822 89.2597 111.17 89.425L113.073 90.3199C113.422 90.4852 113.839 90.334 114.004 89.9853L114.734 88.4354C115.006 87.8569 115.586 87.4881 116.225 87.4881H119.948C120.279 87.4881 120.563 87.2563 120.631 86.9338L121.415 83.2413C121.508 82.8079 121.177 82.3968 120.732 82.3968Z" fill="#CC3B3C"/>
<path d="M115.07 129.807H22.2623C19.9444 129.807 18.1244 127.999 18.0578 125.723L17.2698 98.9323C17.0864 92.6922 22.095 87.5364 28.3372 87.5364H110.253C116.495 87.5364 121.504 92.6942 121.32 98.9323L120.532 125.723C120.462 127.999 118.6 129.807 115.07 129.807Z" fill="#EE2424"/>
<path d="M113.232 101.627L99.1069 102.57C95.8498 102.788 93.0522 104.594 91.6131 107.442L91.2261 108.208H47.7044L47.3154 107.448C45.8541 104.596 43.0283 102.802 39.753 102.611L22.9454 101.627C21.9658 101.627 20.2808 101.077 20.3453 100.388L21.085 92.533C21.2503 90.7714 26.1078 89.3323 31.8178 89.3323C31.8178 89.3323 60.6321 91.9606 70.0366 91.9606C79.3686 91.9606 106.766 89.3323 106.766 89.3323C112.478 89.3323 117.334 90.7714 117.499 92.533L118.239 100.388C118.305 101.077 116.62 101.627 113.232 101.627Z" fill="#EF4041"/>
<path d="M31.1991 84.892L38.2616 69.9689C39.0416 68.3222 40.6984 67.2721 42.5204 67.2721H96.3034C98.1254 67.2721 99.7822 68.3222 100.562 69.9689L107.625 84.892C108.217 86.1457 107.925 87.5062 107.111 88.4232H111.684L102.114 68.1972C101.235 66.3409 99.365 65.1558 97.3111 65.1558C97.3111 65.1558 76.3877 64.7244 69.4139 64.7244C62.4401 64.7244 41.5167 65.1558 41.5167 65.1558C39.4628 65.1558 37.5924 66.3409 36.7136 68.1972L27.1438 88.4232H31.7171C30.8988 87.5062 30.6065 86.1457 31.1991 84.892Z" fill="#EE2424"/>
<path d="M90.0068 123.788H48.8674C47.2065 123.788 45.963 122.264 46.2955 120.638L49.1959 106.438C49.4458 105.217 50.5201 104.34 51.7677 104.34H87.1044C88.352 104.34 89.4263 105.217 89.6762 106.438L92.5766 120.638C92.9112 122.266 91.6676 123.788 90.0068 123.788Z" fill="#EE2424"/>
<path d="M90.0068 126.298H48.8674C47.2065 126.298 45.963 124.774 46.2955 123.147L49.1959 108.948C49.4458 107.726 50.5201 106.849 51.7677 106.849H87.1044C88.352 106.849 89.4263 107.726 89.6762 108.948L92.5766 123.147C92.9112 124.776 91.6676 126.298 90.0068 126.298Z" fill="#2E2525"/>
<path d="M90.168 126.297H51.5682C50.0102 126.297 48.8432 124.935 49.1556 123.478L51.8766 110.766C52.1104 109.671 53.1202 108.887 54.2892 108.887H87.447C88.618 108.887 89.6258 109.673 89.8596 110.766L92.5806 123.478C92.893 124.935 91.726 126.297 90.168 126.297Z" fill="#4A3D3D"/>
<path opacity="0.75" d="M96.3013 67.2722H42.5204C40.6984 67.2722 39.0416 68.3223 38.2616 69.969L31.1991 84.8921C30.1853 87.0366 31.7493 89.5057 34.1196 89.5057C34.1196 89.5057 60.5878 90.5719 69.4099 90.5719C78.2319 90.5719 104.7 89.5057 104.7 89.5057C107.072 89.5057 108.637 87.0366 107.621 84.8921L100.558 69.969C99.7802 68.3223 98.1234 67.2722 96.3013 67.2722Z" fill="#A8D9E0"/>
<path d="M76.6115 72.3997H61.0092C60.9064 72.3997 60.8237 72.3171 60.8237 72.2143V69.7049C60.8237 69.6021 60.9064 69.5195 61.0092 69.5195H76.6115C76.7143 69.5195 76.797 69.6021 76.797 69.7049V72.2143C76.797 72.3171 76.7143 72.3997 76.6115 72.3997Z" fill="#4E5C61"/>
<path d="M93.7436 96.2457H79.0099C77.3229 96.2457 76.0329 94.7441 76.2869 93.0773L78.1029 81.1674C78.3085 79.823 79.4654 78.8293 80.8259 78.8293H91.9276C93.2881 78.8293 94.445 79.823 94.6506 81.1674L96.4666 93.0773C96.7205 94.7441 95.4306 96.2457 93.7436 96.2457Z" fill="#607983"/>
<path d="M58.6105 96.2457H43.8768C42.1898 96.2457 40.8999 94.7441 41.1538 93.0773L42.9698 81.1674C43.1754 79.823 44.3323 78.8293 45.6928 78.8293H56.7945C58.155 78.8293 59.3119 79.823 59.5175 81.1674L61.3335 93.0773C61.5875 94.7441 60.2975 96.2457 58.6105 96.2457Z" fill="#607983"/>
<path d="M113.704 93.7747H26.3779C25.3158 93.7747 25.6523 92.8737 27.0471 91.8276L32.3258 87.8651C33.3376 87.1052 34.7969 86.5187 35.6354 86.5187H104.444C105.283 86.5187 106.742 87.1052 107.754 87.8651L113.032 91.8276C114.429 92.8737 114.766 93.7747 113.704 93.7747Z" fill="#50595C"/>
<path d="M89.6763 89.3344C94.9104 89.3344 99.1535 88.0728 99.1535 86.5166C99.1535 84.9605 94.9104 83.6989 89.6763 83.6989C84.4423 83.6989 80.1992 84.9605 80.1992 86.5166C80.1992 88.0728 84.4423 89.3344 89.6763 89.3344Z" fill="#50595C"/>
<path d="M40.3256 112.42L22.492 111.308C21.8874 111.27 21.4177 110.77 21.4177 110.165V105.342C21.4177 104.681 21.976 104.157 22.6351 104.199L40.4687 105.312C41.0734 105.35 41.543 105.85 41.543 106.454V111.278C41.543 111.937 40.9847 112.461 40.3256 112.42Z" fill="white"/>
<path d="M98.569 112.42L116.403 111.308C117.007 111.27 117.477 110.77 117.477 110.165V105.342C117.477 104.681 116.919 104.157 116.259 104.199L98.4259 105.312C97.8212 105.35 97.3516 105.85 97.3516 106.454V111.278C97.3536 111.937 97.9099 112.461 98.569 112.42Z" fill="white"/>
<path d="M37.5703 123.028L24.2194 122.168C23.8122 122.145 23.4978 122.524 23.5945 122.919L24.304 125.83C24.3705 126.102 24.6144 126.295 24.8966 126.295H41.6438C41.8252 126.295 41.9461 126.108 41.8695 125.943C41.0855 124.252 39.4327 123.131 37.5703 123.028Z" fill="#261F1F"/>
<path d="M101.326 123.028L114.677 122.168C115.084 122.145 115.399 122.524 115.302 122.919L114.592 125.83C114.526 126.102 114.282 126.295 114 126.295H97.2525C97.0711 126.295 96.9502 126.108 97.0268 125.943C97.8088 124.252 99.4636 123.131 101.326 123.028Z" fill="#261F1F"/>
<path d="M136.564 30.3734C109.435 -0.42215 65.7133 -11.5359 35.9194 14.7106C46.6966 21.1583 55.2264 30.7685 60.3519 42.2329L60.5434 42.6622L61.7386 43.4201C84.5184 57.8816 102.709 78.531 114.183 102.953L114.786 104.235L115.187 104.479C125.914 111.01 134.373 120.684 139.41 132.187C170.274 105.001 163.693 61.169 136.564 30.3734Z" fill="#D57628"/>
<path d="M136.564 30.3734C109.435 -0.42215 65.7133 -11.5359 35.9194 14.7106C46.6966 21.1583 55.2264 30.7685 60.3519 42.2329L60.5434 42.6622L61.7386 43.4201C73.1285 50.6519 83.3715 59.4296 92.1996 69.4509L136.564 30.3734Z" fill="#EEC21C"/>
<path d="M136.564 30.3734L134.707 29.41C110.803 16.9942 81.6279 21.3578 62.4016 40.2234L60.3518 42.2349L60.9625 42.9303L61.7385 43.4241C84.5182 57.8856 102.709 78.535 114.183 102.957L114.786 104.239L117.108 102.419C138.333 85.7788 146.432 57.3676 137.17 32.0362L136.564 30.3734Z" fill="#F19420"/>
</svg>
