<svg width="281" height="362" viewBox="0 0 281 362" fill="none" xmlns="http://www.w3.org/2000/svg">
<g opacity="0.03">
<path d="M1.54373 294.863C16.6111 268.31 44.9551 251.761 75.5221 251.761H133.692C139.003 251.761 144.128 250.155 148.512 247.068L191.491 216.933C200.198 210.82 210.449 207.609 221.07 207.609H317.835C330.741 207.609 343.03 212.425 352.601 221.07L372.856 239.596H440.721V261.456H364.396L337.843 237.249C332.347 232.247 325.245 229.469 317.835 229.469H221.009C214.895 229.469 208.967 231.321 203.965 234.841L160.986 264.976C152.897 270.657 143.449 273.621 133.63 273.621H75.4603C53.8473 273.621 33.3458 284.983 21.86 303.262V325.369H-6.10352e-05V297.334L1.54373 294.863Z" fill="black"/>
<path d="M407.437 152.279H359.271V195.444H300.854V111.585L254.17 84.1674V186.304H195.814V21.8601H142.523V220.206H84.1675V110.412L36.9276 128.443V244.042H15.1293V113.438L105.966 78.6715V198.346H120.663V0H217.674V164.444H232.371V46.0049L322.714 99.1112V173.584H337.411V130.481H429.297V221.318H407.437V152.279Z" fill="#E1251B"/>
<path d="M90.2195 282.204C112.203 282.204 130.049 300.05 130.049 322.034C130.049 344.017 112.203 361.863 90.2195 361.863C68.236 361.863 50.3898 344.017 50.3898 322.034C50.3898 300.112 68.2977 282.204 90.2195 282.204ZM72.2499 322.095C72.2499 332.037 80.3393 340.127 90.2813 340.127C100.223 340.127 108.313 332.037 108.313 322.095C108.313 312.153 100.223 304.064 90.2813 304.064C80.3393 304.064 72.2499 312.153 72.2499 322.095Z" fill="black"/>
<path d="M361.803 282.204C383.786 282.204 401.632 300.05 401.632 322.034C401.632 344.017 383.724 361.863 361.803 361.863C343.648 361.863 328.272 349.637 323.517 332.964H160.06V311.104H323.517C328.272 294.493 343.586 282.204 361.803 282.204ZM343.771 322.095C343.771 332.037 351.861 340.127 361.803 340.127C371.745 340.127 379.834 332.037 379.834 322.095C379.834 312.153 371.745 304.064 361.803 304.064C351.861 304.064 343.771 312.153 343.771 322.095Z" fill="black"/>
<path d="M201.618 274.115H314.809V295.975H201.618V274.115Z" fill="black"/>
</g>
</svg>
