<svg width="295" height="362" viewBox="0 0 295 362" fill="none" xmlns="http://www.w3.org/2000/svg">
<g opacity="0.03">
<path d="M292.786 294.863C277.719 268.31 249.375 251.761 218.807 251.761H160.638C155.327 251.761 150.202 250.155 145.817 247.068L102.838 216.933C94.1311 210.82 83.8804 207.609 73.2591 207.609H-23.5055C-36.4116 207.609 -48.7002 212.425 -58.2717 221.07L-78.5262 239.596H-146.391V261.456H-70.0662L-43.513 237.249C-38.0172 232.247 -30.9157 229.469 -23.5055 229.469H73.3209C79.4343 229.469 85.3624 231.321 90.3643 234.841L133.343 264.976C141.433 270.657 150.881 273.621 160.699 273.621H218.869C240.482 273.621 260.984 284.983 272.47 303.262V325.369H294.33V297.334L292.786 294.863Z" fill="black"/>
<path d="M-113.107 152.279H-64.941V195.444H-6.52408V111.585L40.1601 84.1674V186.304H98.5153V21.8601H151.807V220.206H210.162V110.412L257.402 128.443V244.042H279.2V113.438L188.364 78.6715V198.346H173.667V0H76.6553V164.444H61.9584V46.0049L-28.3841 99.1112V173.584H-43.081V130.481H-134.967V221.318H-113.107V152.279Z" fill="#E1251B"/>
<path d="M204.11 282.204C182.127 282.204 164.281 300.05 164.281 322.034C164.281 344.017 182.127 361.863 204.11 361.863C226.094 361.863 243.94 344.017 243.94 322.034C243.94 300.112 226.032 282.204 204.11 282.204ZM222.08 322.095C222.08 332.037 213.991 340.127 204.049 340.127C194.107 340.127 186.017 332.037 186.017 322.095C186.017 312.153 194.107 304.064 204.049 304.064C213.991 304.064 222.08 312.153 222.08 322.095Z" fill="black"/>
<path d="M-67.4732 282.204C-89.4568 282.204 -107.303 300.05 -107.303 322.034C-107.303 344.017 -89.395 361.863 -67.4732 361.863C-49.3183 361.863 -33.9422 349.637 -29.1873 332.964H134.269V311.104H-29.1873C-33.9422 294.493 -49.2565 282.204 -67.4732 282.204ZM-49.4418 322.095C-49.4418 332.037 -57.5312 340.127 -67.4732 340.127C-77.4152 340.127 -85.5047 332.037 -85.5047 322.095C-85.5047 312.153 -77.4152 304.064 -67.4732 304.064C-57.5312 304.064 -49.4418 312.153 -49.4418 322.095Z" fill="black"/>
<path d="M92.7109 274.115H-20.4797V295.975H92.7109V274.115Z" fill="black"/>
</g>
</svg>
