<svg width="38" height="34" viewBox="0 0 38 34" fill="none" xmlns="http://www.w3.org/2000/svg">
<path d="M34.8333 4.25H25.3333V10.625H12.6667V4.25H3.16667C1.4184 4.25 0 5.67773 0 7.4375V30.8125C0 32.5723 1.4184 34 3.16667 34H34.8333C36.5816 34 38 32.5723 38 30.8125V7.4375C38 5.67773 36.5816 4.25 34.8333 4.25ZM19 14.875C21.3288 14.875 23.2222 16.7809 23.2222 19.125C23.2222 21.4691 21.3288 23.375 19 23.375C16.6712 23.375 14.7778 21.4691 14.7778 19.125C14.7778 16.7809 16.6712 14.875 19 14.875ZM25.1552 29.75H12.8448C12.1587 29.75 11.6045 29.0859 11.8156 28.4352C12.3632 26.7352 13.9531 25.5 15.8333 25.5H16.3743C17.1858 25.8387 18.0698 26.0312 19 26.0312C19.9302 26.0312 20.8208 25.8387 21.6257 25.5H22.1667C24.0403 25.5 25.6302 26.7285 26.1844 28.4352C26.3955 29.0859 25.8413 29.75 25.1552 29.75ZM23.2222 2.125C23.2222 0.949609 22.2788 0 21.1111 0H16.8889C15.7212 0 14.7778 0.949609 14.7778 2.125V8.5H23.2222V2.125Z" fill="#E2211C"/>
</svg>
