<svg width="33" height="33" viewBox="0 0 33 33" fill="none" xmlns="http://www.w3.org/2000/svg">
<g clip-path="url(#clip0)">
<path d="M10.733 19.9332L7.86153 18.5618L5.43724 24.5484C5.42969 24.5672 5.42239 24.5864 5.41609 24.6055C5.10818 25.5293 5.17666 26.3687 5.6092 26.9684C5.98408 27.4888 6.58682 27.7755 7.30638 27.7755H7.30663C7.64728 27.7755 8.01335 27.7111 8.39453 27.5839C8.41392 27.5777 8.43305 27.5706 8.45168 27.563L14.4383 25.1388L13.0671 22.2671C12.7003 21.4994 11.5006 20.2997 10.733 19.9332Z" fill="#E2211C"/>
<path d="M32.9177 1.44946L14.0671 20.3C14.3801 20.6854 14.6407 21.0757 14.8119 21.4337L19.5968 31.4531C20.2395 32.7991 21.087 33 21.5346 33H21.5349C21.935 33 22.9231 32.826 23.4607 31.2137L32.8086 3.16981C33.0181 2.54089 33.0529 1.95124 32.9177 1.44946Z" fill="#E2211C"/>
<path d="M12.7002 18.9329L31.5518 0.0813217C31.3541 0.0276947 31.1421 0 30.9188 0C30.5777 0 30.2116 0.0644531 29.8304 0.191597L1.78676 9.53931C0.303077 10.034 0.032676 10.8976 0.00347064 11.3682C-0.0257347 11.839 0.136153 12.7292 1.54732 13.403L11.5668 18.1881C11.9245 18.3593 12.3148 18.6199 12.7002 18.9329Z" fill="#E2211C"/>
</g>
<defs>
<clipPath id="clip0">
<rect width="33" height="33" fill="white"/>
</clipPath>
</defs>
</svg>
