<svg width="61" height="60" viewBox="0 0 61 60" fill="none" xmlns="http://www.w3.org/2000/svg">
<path d="M2.09798 52.1324C2.09798 50.6598 2.09798 49.2975 2.09798 47.8617C1.14466 47.4843 0.278162 46.8182 0.137919 45.6712C0.00435451 44.5676 -0.0206889 43.4173 0.137919 42.3221C0.338266 40.9347 1.57875 40.0247 2.98952 39.9947C3.71578 39.9797 4.44371 39.9914 5.29852 39.9914C2.46528 37.3134 1.31162 34.1629 2.40852 30.4615C3.50876 26.7468 6.16168 24.6949 10.0167 24.0103C10.0167 22.9752 10.0167 21.9201 10.0167 20.8649C10.0167 20.6145 10.0117 20.364 10.0184 20.1153C10.0401 19.3723 10.399 19 11.137 18.99C12.0703 18.9766 13.0035 18.9866 13.9769 18.9866C13.9769 16.6459 13.9769 14.3469 13.9769 11.9845C13.062 11.9845 12.1721 11.9745 11.2822 11.9879C10.788 11.9962 10.3723 11.8843 10.1269 11.4152C9.88981 10.9577 10.0785 10.5788 10.3423 10.2014C12.5661 7.03094 14.7816 3.85545 17.0055 0.684954C17.6482 -0.231633 18.3845 -0.226626 19.0323 0.69664C21.2428 3.85044 23.4466 7.00924 25.6571 10.163C25.9326 10.5554 26.1513 10.9444 25.8975 11.4286C25.6354 11.9294 25.1813 11.9995 24.6754 11.9912C23.8223 11.9778 22.9691 11.9879 22.0642 11.9879C22.0642 14.3019 22.0642 16.6008 22.0642 18.9432C25.011 18.9432 27.9745 18.9432 30.9747 18.9432C30.9747 16.6476 30.9747 14.3636 30.9747 11.9845C30.1232 11.9845 29.2567 11.9728 28.3935 11.9895C27.8659 11.9995 27.3868 11.9378 27.1163 11.4102C26.8525 10.8943 27.128 10.4953 27.4085 10.0929C29.5839 6.99087 31.756 3.8855 33.9314 0.781789C34.666 -0.265024 35.3689 -0.261686 36.1102 0.798483C38.2706 3.8855 40.4277 6.97585 42.5881 10.0645C42.8803 10.4819 43.1775 10.8943 42.8903 11.4352C42.6098 11.9645 42.119 11.9962 41.5997 11.9879C40.7683 11.9745 39.9368 11.9845 39.0587 11.9845C39.0587 14.3119 39.0587 16.6092 39.0587 18.9482C42.0205 18.9482 44.9839 18.9482 47.9791 18.9482C47.9791 16.6443 47.9791 14.362 47.9791 11.9845C47.0892 11.9845 46.2027 11.9745 45.3162 11.9879C44.8286 11.9962 44.3996 11.9127 44.1391 11.4503C43.872 10.9744 44.0723 10.5788 44.3495 10.1831C46.5617 7.02927 48.7655 3.87047 50.9776 0.718345C51.6471 -0.236642 52.3734 -0.238312 53.0412 0.715005C55.2517 3.8688 57.4555 7.0276 59.6677 10.1814C59.9465 10.5788 60.1452 10.9744 59.8847 11.4503C59.6293 11.9161 59.1985 11.9995 58.711 11.9929C57.8395 11.9795 56.9663 11.9895 56.0514 11.9895C56.0514 14.3202 56.0514 16.6192 56.0514 18.9883C56.948 18.9883 57.8362 18.985 58.7244 18.99C59.6643 18.995 60.0066 19.3306 60.0066 20.2689C60.0099 32.0827 60.0099 43.8965 60.0099 55.7102C60.0099 56.6903 59.6677 57.0025 58.6142 57.0025C46.6802 57.0025 34.7462 57.0008 22.8139 56.9991C22.5668 56.9991 22.3197 56.9991 22.0542 56.9991C21.8655 58.5201 21.136 59.5569 19.63 59.9209C19.3512 59.9877 19.0523 59.996 18.7635 59.996C13.5979 60.001 8.43395 60.001 3.26834 59.9977C1.27155 59.996 0.0260598 58.7555 0.017712 56.7721C0.0160425 56.4181 0.037746 56.0625 0.0143722 55.7102C-0.104166 54.0023 0.503553 52.7368 2.09798 52.1324ZM18.4029 27.7418C21.0274 32.2162 20.4815 36.2799 16.7851 39.988C17.5982 39.988 18.3261 39.978 19.0523 39.9897C20.4281 40.0131 21.5717 40.9263 21.914 42.262C21.9741 42.4957 22.0175 42.7344 22.0676 42.9665C31.4321 42.9665 40.7599 42.9665 50.0961 42.9665C50.6437 40.9013 51.956 39.6107 53.9878 39.0664C53.9878 35.6555 53.9878 32.283 53.9878 28.9055C51.9226 28.3545 50.632 27.0439 50.0911 25.0087C40.0153 25.0087 29.9796 25.0087 19.9773 25.0087C19.7602 25.5146 19.6 26.0155 19.3428 26.4596C19.074 26.9187 18.7118 27.3261 18.4029 27.7418ZM57.9798 21.0268C42.6399 21.0268 27.3467 21.0268 12.0652 21.0268C12.0652 22.0586 12.0652 23.047 12.0652 24.0487C13.9518 24.2741 15.5529 25.0522 16.957 26.2259C17.6349 25.6031 17.9354 25.0087 18.0105 24.184C18.094 23.2641 18.3912 22.9836 19.3161 22.9836C29.7909 22.9819 40.2657 22.9819 50.7422 22.9836C51.6271 22.9836 51.946 23.2824 52.0178 24.1489C52.148 25.71 53.28 26.8419 54.846 26.9755C55.7175 27.0489 56.0113 27.3628 56.0113 28.2494C56.0147 32.0626 56.0147 35.8742 56.0113 39.6875C56.0113 40.6108 55.7259 40.913 54.8109 40.9931C53.3517 41.12 52.1947 42.2336 52.0261 43.6694C51.8942 44.8047 51.6855 44.9883 50.5185 44.9883C41.2725 44.9883 32.0248 44.9883 22.7788 44.9883C22.5334 44.9883 22.2879 44.9883 22.0559 44.9883C21.9807 45.394 21.9173 45.7363 21.8572 46.0585C22.2262 46.2789 22.5534 46.4976 22.904 46.6746C23.1661 46.8065 23.455 46.9734 23.7321 46.9734C34.9783 46.9885 46.2244 46.9868 57.4689 46.9868C57.6292 46.9868 57.7894 46.9868 57.9798 46.9868C57.9798 38.3068 57.9798 29.6885 57.9798 21.0268ZM23.0943 9.98105C21.3697 7.51512 19.7202 5.1577 18.0155 2.72181C16.3093 5.16104 14.6597 7.51845 12.9384 9.98105C13.6163 9.98105 14.1689 9.97938 14.7215 9.98105C15.6915 9.98606 16.0188 10.32 16.0188 11.3067C16.0188 13.6391 16.0171 15.9714 16.0154 18.3055C16.0154 18.5242 16.0154 18.7429 16.0154 18.9482C17.3961 18.9482 18.6784 18.9482 20.0107 18.9482C20.0107 18.6895 20.0107 18.4641 20.0107 18.2404C20.0123 15.8863 20.009 13.5339 20.0157 11.1798C20.019 10.355 20.378 9.99608 21.1894 9.98439C21.7754 9.97437 22.3581 9.98105 23.0943 9.98105ZM54.0079 18.9683C54.0079 18.7062 54.0079 18.5025 54.0079 18.2988C54.0095 15.9247 54.0062 13.5489 54.0129 11.1748C54.0162 10.3534 54.3769 9.99441 55.1899 9.98272C55.7826 9.97438 56.3736 9.98105 57.0899 9.98105C55.3636 7.51345 53.714 5.15603 52.0111 2.72181C50.3031 5.16271 48.6553 7.52012 46.934 9.97938C47.5951 9.97938 48.1277 9.97938 48.6603 9.97938C49.6887 9.98105 50.0126 10.2983 50.0126 11.31C50.0126 13.6424 50.0126 15.9764 50.0126 18.3088C50.0126 18.5259 50.0126 18.7446 50.0126 18.9666C51.3817 18.9683 52.6489 18.9683 54.0079 18.9683ZM35.0167 2.72348C33.297 5.18107 31.6492 7.53515 29.9362 9.98105C30.594 9.98105 31.1099 9.97938 31.6275 9.98105C32.6976 9.98272 33.0132 10.2916 33.0132 11.3434C33.0149 13.6541 33.0132 15.9647 33.0132 18.2754C33.0132 18.4958 33.0132 18.7178 33.0132 18.9399C34.3872 18.9399 35.6845 18.9399 37.0118 18.9399C37.0118 18.6694 37.0118 18.4424 37.0118 18.2153C37.0101 15.9046 37.0068 13.594 37.0101 11.2833C37.0118 10.315 37.3507 9.98439 38.3307 9.97938C38.8783 9.97771 39.4243 9.97938 40.0871 9.97938C38.3641 7.51178 36.7246 5.16605 35.0167 2.72348ZM57.9798 53.0356C57.8762 53.0156 57.8178 52.9955 57.7577 52.9955C46.3663 52.9939 34.9766 52.9922 23.5852 52.9972C23.4299 52.9972 23.2513 53.0323 23.1211 53.1124C22.702 53.3712 22.2996 53.66 21.8539 53.9622C21.914 54.2594 21.9824 54.6017 22.0559 54.9623C34.0199 54.9623 45.984 54.9623 57.9798 54.9623C57.9798 54.3162 57.9798 53.6984 57.9798 53.0356ZM24.046 50.9503C35.3873 50.9503 46.6802 50.9503 57.9614 50.9503C57.9614 50.2758 57.9614 49.6431 57.9614 49.022C46.6334 49.022 35.3539 49.022 24.046 49.022C24.046 49.6698 24.046 50.2859 24.046 50.9503ZM11.718 39.9379C15.4695 39.6124 18.3545 36.2215 17.9955 32.3915C17.6716 28.9422 14.4911 25.8285 11.7397 26.0672C11.8666 26.7134 11.9985 27.3778 12.1354 28.0791C12.4492 28.1959 12.8516 28.3095 13.2222 28.4881C14.1706 28.9472 14.8517 29.6418 15.002 30.7353C15.0888 31.3631 14.7532 31.8539 14.2056 31.9675C13.6663 32.0777 13.2056 31.7254 13.0186 31.1177C12.9434 30.8756 12.8132 30.6051 12.6245 30.4548C11.8282 29.8187 10.177 29.8404 9.38393 30.4582C8.91646 30.8221 8.87472 31.2329 9.39228 31.4916C9.91318 31.7521 10.5159 31.9157 11.0986 31.9691C12.137 32.0643 13.1154 32.268 13.9468 32.9325C15.401 34.0928 15.391 35.9844 13.8801 37.0696C13.3374 37.4586 12.6796 37.689 12.1337 37.9628C11.9935 38.6273 11.8532 39.2885 11.718 39.9379ZM10.3039 26.0405C6.66756 26.2876 3.77589 29.5984 4.04302 33.4534C4.34187 37.7542 8.04161 39.948 10.2988 39.9045C10.1703 39.2734 10.0367 38.6106 9.89648 37.9228C9.47409 37.7408 8.95819 37.5722 8.49573 37.31C7.68098 36.8459 7.12836 36.1597 7.02819 35.1897C6.96307 34.5636 7.32203 34.0828 7.87632 34.001C8.40223 33.9225 8.83131 34.2614 9.01329 34.8441C9.09009 35.0862 9.2103 35.36 9.39729 35.5136C10.1803 36.1547 11.8248 36.1397 12.6346 35.5236C13.1237 35.1513 13.1505 34.7256 12.5978 34.4518C12.0936 34.203 11.5076 34.0561 10.945 34.006C9.97328 33.9208 9.05002 33.7389 8.24529 33.1629C6.58742 31.9792 6.59243 29.9323 8.28536 28.7986C8.79124 28.4597 9.39395 28.2644 9.90149 28.0256C10.0367 27.3628 10.1703 26.7 10.3039 26.0405ZM6.06151 42.0232C6.06151 43.3655 6.06151 44.6611 6.06151 45.9417C6.73601 45.9417 7.36544 45.9417 7.98651 45.9417C7.98651 44.6127 7.98651 43.3321 7.98651 42.0232C7.34206 42.0232 6.726 42.0232 6.06151 42.0232ZM11.9734 45.9617C11.9734 44.6144 11.9734 43.3188 11.9734 42.0382C11.2972 42.0382 10.6662 42.0382 10.0501 42.0382C10.0501 43.3705 10.0501 44.6511 10.0501 45.9617C10.6979 45.9617 11.3139 45.9617 11.9734 45.9617ZM15.9737 45.96C15.9737 44.6144 15.9737 43.3188 15.9737 42.0399C15.2992 42.0399 14.6681 42.0399 14.052 42.0399C14.052 43.3705 14.052 44.6511 14.052 45.96C14.7015 45.96 15.3159 45.96 15.9737 45.96ZM8.04995 51.9554C8.74115 51.9554 9.35555 51.9554 9.97829 51.9554C9.97829 50.6231 9.97829 49.3275 9.97829 48.0386C9.30713 48.0386 8.67604 48.0386 8.04995 48.0386C8.04995 49.3643 8.04995 50.6448 8.04995 51.9554ZM12.0502 48.0203C12.0502 49.3743 12.0502 50.6548 12.0502 51.9537C12.713 51.9537 13.3425 51.9537 13.9752 51.9537C13.9752 50.6198 13.9752 49.3225 13.9752 48.0203C13.3174 48.0203 12.703 48.0203 12.0502 48.0203ZM17.9721 51.9638C17.9721 50.6164 17.9721 49.3208 17.9721 48.0403C17.296 48.0403 16.6649 48.0403 16.0488 48.0403C16.0488 49.3726 16.0488 50.6548 16.0488 51.9638C16.6983 51.9638 17.3127 51.9638 17.9721 51.9638ZM8.00655 54.0457C7.35709 54.0457 6.71264 54.0457 6.06151 54.0457C6.06151 55.3697 6.06151 56.6636 6.06151 57.9458C6.73601 57.9458 7.36711 57.9458 8.00655 57.9458C8.00655 56.6302 8.00655 55.363 8.00655 54.0457ZM10.0301 57.9408C10.6795 57.9408 11.324 57.9408 11.9751 57.9408C11.9751 56.6218 11.9751 55.3262 11.9751 54.0407C11.3023 54.0407 10.6712 54.0407 10.0301 54.0407C10.0301 55.3563 10.0301 56.6218 10.0301 57.9408ZM14.0654 54.019C14.0654 55.3713 14.0654 56.6669 14.0654 57.9625C14.7282 57.9625 15.3443 57.9625 15.982 57.9625C15.982 56.6352 15.982 55.3396 15.982 54.019C15.3309 54.019 14.7165 54.019 14.0654 54.019ZM3.9946 41.9915C3.63064 41.9915 3.32177 41.9748 3.01457 41.9948C2.42354 42.0332 2.04956 42.3938 2.02786 42.9849C2.00282 43.6677 1.99781 44.3539 2.03287 45.0368C2.06125 45.5844 2.40184 45.9099 2.94111 45.9717C3.2817 46.0101 3.62897 45.9784 3.9946 45.9784C3.9946 44.6311 3.9946 43.3522 3.9946 41.9915ZM18.0389 45.9884C18.3912 45.9884 18.6817 46.0001 18.9689 45.9867C19.6217 45.9533 19.9923 45.5827 20.0107 44.9182C20.0274 44.2971 20.0224 43.6744 20.0123 43.0517C20.004 42.4773 19.7168 42.0967 19.1458 42.0132C18.7886 41.9614 18.4196 42.0032 18.0406 42.0032C18.0389 43.3572 18.0389 44.6361 18.0389 45.9884ZM5.97636 51.9888C5.97636 50.6148 5.97636 49.3192 5.97636 47.9935C5.62576 47.9935 5.31522 47.9769 5.00802 47.9969C4.41867 48.037 4.04802 48.3993 4.02632 48.9936C4.00128 49.6564 4.00295 50.3226 4.02632 50.9854C4.04802 51.5781 4.42034 51.9437 5.00802 51.9838C5.31689 52.0055 5.62743 51.9888 5.97636 51.9888ZM20.0507 47.9986C20.0507 49.3459 20.0507 50.6398 20.0507 51.9905C20.2861 51.9905 20.4882 51.9905 20.6918 51.9905C21.6669 51.9921 22.0125 51.6549 22.0141 50.6999C22.0158 50.1406 22.0258 49.5796 22.0058 49.0203C21.9858 48.4477 21.6852 48.0787 21.1109 48.0069C20.7703 47.9635 20.4197 47.9986 20.0507 47.9986ZM3.99627 53.9923C3.71745 53.9923 3.49206 53.9906 3.26834 53.9923C2.37513 54.0006 2.02786 54.3445 2.02118 55.2344C2.01617 55.8154 2.00449 56.3964 2.0312 56.9758C2.05791 57.5751 2.41854 57.9391 3.00455 57.9808C3.32678 58.0042 3.65234 57.9842 3.99627 57.9842C3.99627 56.6385 3.99627 55.3596 3.99627 53.9923ZM18.0406 57.9942C18.3344 57.9942 18.5615 57.9975 18.7869 57.9942C19.6434 57.9825 20.0023 57.6336 20.014 56.7921C20.0207 56.2111 20.0224 55.6301 20.0123 55.0508C20.0023 54.4748 19.7085 54.0991 19.1408 54.014C18.7852 53.9605 18.4146 54.004 18.0423 54.004C18.0406 55.3646 18.0406 56.6435 18.0406 57.9942Z" fill="#E2211C"/>
<path d="M36.0451 38.9262C35.9332 40.5807 35.7112 41.0048 34.9866 40.9848C34.2837 40.9647 34.0867 40.5657 33.9882 38.9546C33.5207 38.7609 33.0299 38.599 32.5791 38.3602C31.791 37.9428 31.2434 37.3067 31.0531 36.4102C30.9062 35.719 31.2034 35.1647 31.776 35.0161C32.347 34.8692 32.8045 35.2315 33.0232 35.9293C33.0983 36.1664 33.2669 36.4202 33.4673 36.5621C34.262 37.1298 35.7512 37.1164 36.5576 36.5788C37.1453 36.1865 37.1653 35.7073 36.5209 35.4018C36.0301 35.168 35.449 35.1296 34.9148 34.9827C34.0633 34.749 33.125 34.6538 32.3887 34.2197C30.5072 33.1145 30.5556 30.8539 32.4205 29.7086C32.8913 29.4197 33.4339 29.2461 34.0149 28.9873C34.0149 28.7118 33.9999 28.3596 34.0182 28.009C34.0483 27.4096 34.444 27.0022 34.9866 26.9889C35.5526 26.9738 35.9766 27.3912 36.0083 28.0206C36.025 28.3512 36.0117 28.6851 36.0117 28.9556C36.6662 29.2812 37.3023 29.5349 37.8666 29.8972C38.5227 30.318 38.9117 30.9641 39.0019 31.7538C39.0737 32.3815 38.7347 32.869 38.1871 32.9709C37.6445 33.0727 37.1887 32.7271 37.0184 32.101C36.97 31.9257 36.9166 31.7321 36.8031 31.6002C36.1002 30.7921 33.9648 30.7955 33.2285 31.5835C32.8996 31.9358 32.9848 32.293 33.3437 32.4617C33.8563 32.7021 34.4239 32.839 34.9799 32.9759C35.7195 33.1612 36.5109 33.203 37.2054 33.4901C38.2923 33.9392 39.0202 34.779 39.0002 36.0278C38.9802 37.25 38.2188 37.9996 37.182 38.4988C36.8264 38.6724 36.4424 38.7793 36.0451 38.9262Z" fill="#E2211C"/>
<path d="M24.515 34.986C24.0375 34.986 23.5616 34.9994 23.0841 34.9827C22.448 34.961 22.029 34.5636 22.0206 34.001C22.0123 33.435 22.428 33.0059 23.0558 32.9942C24.0291 32.9742 25.0041 32.9742 25.9792 32.9926C26.6019 33.0043 27.0226 33.4383 27.0126 34.0027C27.0026 34.5403 26.5952 34.956 26.0075 34.9844C25.5117 35.0077 25.0125 34.9894 24.515 34.9894C24.515 34.9877 24.515 34.986 24.515 34.986Z" fill="#E2211C"/>
<path d="M45.5 32.9892C45.9975 32.9892 46.4951 32.9726 46.9926 32.9926C47.5853 33.0176 47.9943 33.4217 48.011 33.9576C48.0277 34.5202 47.6103 34.9693 46.9909 34.9827C45.9959 35.0027 45.0008 35.0027 44.0058 34.9777C43.4164 34.9627 43.0174 34.5286 43.019 33.986C43.019 33.4417 43.4181 33.0243 44.0074 32.9959C44.5033 32.9709 45.0025 32.9892 45.5 32.9892Z" fill="#E2211C"/>
</svg>
