<svg width="30" height="30" viewBox="0 0 30 30" fill="none" xmlns="http://www.w3.org/2000/svg">
<path d="M15.8709 25.3265L16.6066 26.0038L15.8709 25.3265ZM14.1291 25.3265L13.3934 26.0038L14.1291 25.3265ZM22.75 12.5C22.75 13.255 22.4672 14.2344 21.926 15.3793C21.3929 16.5071 20.6493 17.7128 19.821 18.8968C18.1649 21.2639 16.2292 23.4609 15.1352 24.6491L16.6066 26.0038C17.7257 24.7882 19.7296 22.5163 21.4597 20.0433C22.3246 18.8072 23.1358 17.5001 23.7342 16.234C24.3246 14.9849 24.75 13.6894 24.75 12.5H22.75ZM14.8648 24.6491C13.7708 23.4609 11.8351 21.2639 10.179 18.8968C9.35068 17.7128 8.60707 16.5071 8.07398 15.3793C7.53284 14.2344 7.25 13.255 7.25 12.5H5.25C5.25 13.6894 5.67541 14.9849 6.2658 16.234C6.86424 17.5001 7.67545 18.8072 8.54026 20.0433C10.2704 22.5163 12.2743 24.7882 13.3934 26.0038L14.8648 24.6491ZM7.25 12.5C7.25 8.21979 10.7198 4.75 15 4.75V2.75C9.61522 2.75 5.25 7.11522 5.25 12.5H7.25ZM15 4.75C19.2802 4.75 22.75 8.21979 22.75 12.5H24.75C24.75 7.11522 20.3848 2.75 15 2.75V4.75ZM15.1352 24.6491C15.092 24.6961 15.0439 24.7125 15 24.7125C14.9561 24.7125 14.908 24.6961 14.8648 24.6491L13.3934 26.0038C14.2634 26.9487 15.7366 26.9487 16.6066 26.0038L15.1352 24.6491Z" fill="#EB5757"/>
<path d="M18.75 12.5C18.75 14.5711 17.0711 16.25 15 16.25C12.9289 16.25 11.25 14.5711 11.25 12.5C11.25 10.4289 12.9289 8.75 15 8.75C17.0711 8.75 18.75 10.4289 18.75 12.5Z" stroke="#E2211C" stroke-width="2"/>
</svg>
