<svg width="61" height="60" viewBox="0 0 61 60" fill="none" xmlns="http://www.w3.org/2000/svg">
<path d="M14.738 51.2772C15.2585 52.0255 15.7466 52.8064 16.2346 53.5547C16.3647 53.7174 16.3973 53.815 16.1695 53.9777C15.1284 54.6284 14.1198 55.3442 13.1112 56.0274C12.428 56.4829 11.7447 56.9384 11.0289 57.3939C10.9313 57.2638 10.8337 57.1661 10.7686 57.0685C10.3782 56.5154 9.79258 56.3853 9.23948 56.7757C8.75145 57.1011 8.6213 57.7518 8.94666 58.2724C9.20694 58.6628 9.49976 59.0207 9.72751 59.4436C10.0529 60.0293 10.8337 60.1594 11.3543 59.8015C13.6968 58.2398 16.0394 56.6781 18.3819 55.1164C18.9676 54.726 19.0652 54.0753 18.6748 53.4896C18.4796 53.1968 18.3169 52.9365 18.1217 52.6112C18.4796 52.3834 18.7724 52.1231 19.1303 51.9279C19.5858 51.6677 20.1063 51.5375 20.6269 51.6677C21.5054 51.8954 22.3513 52.1557 23.1972 52.416C24.7264 52.8715 26.223 53.2944 27.7522 53.7499C29.867 54.3681 31.9818 54.9537 34.0966 55.5719C34.8124 55.7671 35.5607 55.9949 36.2765 56.0925C37.3176 56.2226 38.2286 55.8647 39.107 55.2791C40.7013 54.2054 42.2955 53.1643 43.8572 52.1232C45.8744 50.7892 47.9242 49.4227 49.9413 48.0562C52.6093 46.2668 55.2446 44.4773 57.9125 42.7529C59.8647 41.484 60.5154 39.3042 59.7671 37.3521C58.791 34.8143 55.6025 33.8382 53.3576 35.3348C50.4619 37.2544 47.5988 39.174 44.7357 41.0936C44.1826 41.4841 44.0199 42.1348 44.3778 42.6879C44.7031 43.1434 45.3864 43.241 45.907 42.9156C48.7375 41.0285 51.6007 39.109 54.4313 37.2219C55.147 36.7339 55.9279 36.6363 56.6762 37.0592C58.2704 37.9051 58.3355 39.8898 56.8063 40.8984C54.3011 42.5577 51.7959 44.217 49.2906 45.8763C45.484 48.4141 41.6773 50.9844 37.8707 53.5222C37.2525 53.9451 36.6018 54.1729 35.8535 53.8475C35.5607 53.7174 35.2353 53.6523 34.91 53.5872C33.4133 53.1643 31.9167 52.7413 30.4201 52.3184C29.1837 51.9605 27.9474 51.6026 26.711 51.2447C24.9216 50.7241 23.1321 50.2361 21.3752 49.7155C20.4968 49.4552 19.6183 49.4227 18.7724 49.7806C18.2193 50.0083 17.6662 50.3662 17.1456 50.6591C16.9504 50.7567 16.8528 50.8868 16.6576 50.594C15.9743 49.6179 15.2585 48.6744 14.6729 47.6658C13.5992 45.8438 12.3629 44.152 11.1916 42.395C11.0289 42.1673 11.0615 42.0697 11.2567 41.9395C12.1351 41.3864 12.9811 40.8008 13.827 40.2152C15.1935 39.3042 16.5274 38.3606 17.8939 37.4497C18.9025 36.7664 20.0413 36.376 21.2451 36.6688C22.9044 37.0918 24.4986 37.6774 26.1254 38.1654C27.2316 38.5233 28.3378 38.8812 29.444 39.2391C30.8105 39.6621 32.177 40.1176 33.5435 40.5405C34.8774 40.9635 36.2439 41.419 37.5779 41.8094C38.7817 42.1673 39.3348 43.0458 39.3023 44.0218C39.2372 45.4534 37.9032 46.3644 36.5042 46.0065C35.6257 45.7787 34.7147 45.551 33.8363 45.2907C32.177 44.8352 30.5502 44.3797 28.8909 43.9567C28.4679 43.8591 28.045 43.6965 27.622 43.9893C27.1991 44.2496 27.1014 44.64 27.1665 45.0955C27.2316 45.551 27.4919 45.8113 27.8823 45.9089C28.5655 46.1041 29.2163 46.2993 29.8995 46.462C31.9167 46.9825 33.9014 47.5356 35.9186 48.0562C36.9597 48.3165 37.9683 48.284 38.9444 47.8285C41.84 46.462 42.328 42.6879 39.8879 40.6056C39.1396 39.9874 38.2611 39.7597 37.4152 39.4669C35.5932 38.8812 33.8038 38.3281 31.9818 37.7425C30.3875 37.2219 28.7933 36.7013 27.2316 36.2133C25.6699 35.7253 24.1082 35.2372 22.5465 34.7167C20.6269 34.0985 18.7724 34.3263 17.0805 35.3999C14.7054 36.8966 12.3954 38.5233 10.0529 40.085C9.85765 40.2152 9.72751 40.2477 9.59737 39.9874C9.49976 39.7597 9.30455 39.597 9.17441 39.3692C8.91413 38.8812 8.16581 38.6535 7.58017 39.0764C5.23761 40.6056 2.9276 42.1673 0.585042 43.729C-0.000596053 44.1194 -0.195806 44.8352 0.227155 45.4534C0.877865 46.3969 1.49603 47.3404 2.11421 48.284C3.41563 50.2036 4.71705 52.1557 5.98593 54.0753C6.31129 54.5958 6.99453 54.7585 7.5151 54.4332C8.03567 54.1078 8.10074 53.3595 7.77538 52.8715C6.44143 50.9193 5.14001 48.9347 3.83859 46.9825C3.41563 46.3318 2.96013 45.6811 2.53717 45.0304C4.32662 43.8266 6.11607 42.6553 7.90552 41.4515C10.0854 44.3472 14.6404 51.1471 14.738 51.2772Z" fill="#E2211C"/>
<path d="M53.8784 14.0891C53.8784 19.7503 53.9109 25.444 53.9109 31.1052C53.9109 31.5282 53.9109 31.9837 53.6506 32.309C53.2927 32.797 52.5119 32.8296 52.1214 32.3741C51.7961 32.0162 51.7961 31.4956 51.7961 31.0076C51.7961 24.9885 51.7961 19.002 51.7961 12.9829C50.7224 12.9829 49.6813 12.9829 48.6076 12.9829C48.6076 20.401 48.6076 27.8516 48.6076 35.2697C48.6076 35.6276 48.6076 36.0181 48.4124 36.3434C48.1521 36.7664 47.5665 36.929 47.111 36.7664C46.4277 36.5061 46.4277 35.7578 46.4277 35.1071C46.4277 27.4287 46.4277 19.7503 46.4277 12.072C46.4277 11.7141 46.4603 11.2911 46.7206 11.0308C46.9808 10.8031 47.3387 10.8031 47.6641 10.8031C49.3559 10.8031 51.0478 10.8031 52.7722 10.8031C53.065 10.8031 53.3903 10.8031 53.6181 11.0308C53.8458 11.2586 53.8458 11.5839 53.8458 11.9093C53.8784 12.6576 53.8784 13.3734 53.8784 14.0891Z" fill="#E2211C"/>
<path d="M48.1192 2.86444C47.5335 3.02712 46.9154 3.15726 46.3297 3.31994C45.4513 3.54769 44.768 3.02712 44.8331 2.21373C44.8656 1.75823 45.191 1.36781 45.6465 1.23767C47.2082 0.84724 48.7699 0.456814 50.3316 0.098924C50.6895 0.00131758 51.0799 -0.0312169 51.4378 0.033854C51.8933 0.098925 52.1861 0.521884 52.1861 0.977381C52.1536 2.34387 52.121 3.71036 52.056 5.07685C52.056 5.53235 52.0234 5.98784 51.9909 6.44334C51.9584 7.06151 51.5029 7.51701 50.9172 7.48447C50.3316 7.45194 49.8436 6.96391 49.8436 6.37827C49.8436 5.69503 49.8436 5.01178 49.8436 4.26346C49.5182 4.62136 49.2254 4.97925 48.9326 5.33714C46.9154 7.80983 44.8982 10.2825 42.881 12.7552C42.6532 13.048 42.4255 13.3409 42.1652 13.6337C41.5796 14.3169 41.2867 14.4145 40.4408 14.0892C38.3911 13.3409 36.3413 12.5925 34.2916 11.8117C33.6409 11.5839 32.9902 11.3237 32.3395 11.1285C32.2093 11.0959 32.0141 11.1285 31.9165 11.1935C29.6065 12.9179 27.329 14.6097 25.019 16.3341C24.4984 16.7246 23.9453 17.1475 23.3922 17.5379C22.8391 17.9284 22.1884 17.8633 21.798 17.3427C21.4726 16.8872 21.6028 16.1714 22.1233 15.781C25.1166 13.5361 28.1424 11.2911 31.1357 9.04618C31.5586 8.75336 31.9491 8.68829 32.4371 8.8835C33.8036 9.40407 35.2026 9.85957 36.5691 10.3801C37.8705 10.8356 39.1719 11.3237 40.4733 11.8117C40.7336 11.9093 40.8312 11.8442 40.9939 11.649C43.1413 8.98111 45.3211 6.3132 47.501 3.67783C47.6962 3.45008 47.8914 3.22233 48.0867 2.96205C48.1192 2.92951 48.1192 2.89697 48.1192 2.86444Z" fill="#E2211C"/>
<path d="M35.5606 35.3999C35.5606 35.9205 35.2678 36.3109 34.7798 36.4085C34.2592 36.5387 33.7712 36.3435 33.5434 35.8554C33.4458 35.6602 33.4458 35.4325 33.4458 35.2047C33.4458 30.5847 33.4458 25.9972 33.4458 21.3771C33.4458 21.2145 33.4458 21.0843 33.4458 20.8891C32.3396 20.8891 31.2985 20.8891 30.1923 20.8891C30.1923 21.0518 30.1923 21.2145 30.1923 21.3771C30.1923 25.3139 30.1923 29.2507 30.1923 33.22C30.1923 33.9684 29.6717 34.3588 29.2162 34.3913C28.6631 34.4564 28.0449 33.9358 28.0449 33.2851C28.0775 29.2507 28.0449 25.2163 28.0449 21.1819C28.0449 20.759 28.0449 20.336 28.0449 19.8805C28.0449 19.1322 28.4353 18.7418 29.1837 18.7418C30.6152 18.7418 32.0143 18.7418 33.4458 18.7418C33.8037 18.7418 34.1616 18.7418 34.4869 18.7418C35.1377 18.7743 35.5281 19.1647 35.5281 19.8154C35.5932 23.4919 35.5932 34.1961 35.5606 35.3999Z" fill="#E2211C"/>
<path d="M42.5886 24.2402C41.5149 24.2402 40.5063 24.2402 39.4327 24.2402C39.4327 24.4029 39.4001 24.5981 39.4001 24.7608C39.4001 28.5675 39.4001 32.3741 39.4001 36.1482C39.4001 36.8965 39.0422 37.3195 38.3915 37.352C37.7408 37.352 37.3179 36.9616 37.3179 36.3109C37.3179 35.2698 37.3179 34.2612 37.3179 33.22C37.3179 29.9014 37.3179 26.6153 37.3179 23.2967C37.3179 22.4508 37.7083 22.0929 38.5217 22.0929C40.2135 22.0929 41.9379 22.0929 43.6298 22.0929C44.3781 22.0929 44.7685 22.4833 44.7685 23.1991C44.7685 27.9493 44.7685 32.6995 44.7685 37.4496C44.7685 38.1329 44.3781 38.5233 43.7599 38.5233C43.0766 38.5233 42.6211 38.1329 42.6211 37.4171C42.6211 35.3999 42.6211 33.3827 42.6211 31.3655C42.6211 29.1531 42.6211 26.9081 42.6211 24.6957C42.5886 24.5656 42.5886 24.4354 42.5886 24.2402Z" fill="#E2211C"/>
<path d="M26.4183 29.6086C26.4183 30.5846 26.4183 31.5282 26.4183 32.5042C26.4183 32.9923 26.093 33.3827 25.6375 33.5128C25.182 33.643 24.6614 33.4478 24.4662 33.0573C24.3686 32.8621 24.3361 32.6344 24.3361 32.4392C24.3361 31.0401 24.3361 29.6411 24.3361 28.2421C24.3361 27.8842 24.2385 27.7866 23.8806 27.7866C23.0346 27.8191 22.2213 27.8191 21.3753 27.7866C21.0825 27.7866 20.9849 27.8842 20.9849 28.177C20.9849 29.1531 20.9849 30.0966 20.9849 31.0727C20.9849 31.5932 20.7246 31.9511 20.2691 32.1138C19.8787 32.2439 19.3256 32.0813 19.0979 31.7234C18.9677 31.5282 18.9026 31.3004 18.9026 31.0727C18.8701 29.6411 18.9026 28.2095 18.9026 26.778C18.9026 26.1273 19.3581 25.6718 20.0088 25.6718C21.7658 25.6718 23.5552 25.6718 25.3121 25.6718C25.9954 25.6718 26.4509 26.1598 26.4509 26.8431C26.4183 27.7215 26.4183 28.665 26.4183 29.6086Z" fill="#E2211C"/>
</svg>
