<svg width="38" height="30" viewBox="0 0 38 30" fill="none" xmlns="http://www.w3.org/2000/svg">
<g clip-path="url(#clip0)">
<path d="M30.406 11.1914L29.9191 12.0293C29.741 12.3399 29.361 12.4688 29.0226 12.3457C28.3219 12.0879 27.6807 11.7188 27.1166 11.2559C26.8435 11.0332 26.7723 10.6406 26.9504 10.3359L27.4373 9.49805C27.0276 9.0293 26.707 8.48438 26.4932 7.89258H25.5135C25.1573 7.89258 24.8485 7.64063 24.7891 7.28907C24.6704 6.58594 24.6644 5.84766 24.7891 5.11524C24.8485 4.76368 25.1573 4.50587 25.5135 4.50587H26.4932C26.707 3.91407 27.0276 3.36915 27.4373 2.9004L26.9504 2.06251C26.7723 1.75782 26.8376 1.36524 27.1166 1.14259C27.6807 0.679694 28.3279 0.310554 29.0226 0.0527412C29.361 -0.0703056 29.741 0.0586006 29.9191 0.369148L30.406 1.20704C31.0294 1.09571 31.6648 1.09571 32.2882 1.20704L32.7751 0.369148C32.9532 0.0586006 33.3332 -0.0703056 33.6716 0.0527412C34.3723 0.310554 35.0135 0.679694 35.5776 1.14259C35.8507 1.36524 35.922 1.75782 35.7438 2.06251L35.257 2.9004C35.6666 3.36915 35.9873 3.91407 36.201 4.50587H37.1807C37.537 4.50587 37.8457 4.75782 37.9051 5.10938C38.0238 5.81251 38.0298 6.55079 37.9051 7.28321C37.8457 7.63477 37.537 7.89258 37.1807 7.89258H36.201C35.9873 8.48438 35.6666 9.0293 35.257 9.49805L35.7438 10.3359C35.922 10.6406 35.8566 11.0332 35.5776 11.2559C35.0135 11.7188 34.3663 12.0879 33.6716 12.3457C33.3332 12.4688 32.9532 12.3399 32.7751 12.0293L32.2882 11.1914C31.6707 11.3027 31.0294 11.3027 30.406 11.1914ZM29.7826 7.7461C32.0685 9.48048 34.6751 6.90821 32.9176 4.65235C30.6316 2.91212 28.0251 5.49024 29.7826 7.7461ZM22.9366 16.7637L24.9376 17.7481C25.5373 18.0879 25.7985 18.8086 25.561 19.4531C25.0326 20.8711 23.9935 22.1719 23.0316 23.3086C22.5923 23.8301 21.8323 23.959 21.2326 23.6191L19.5048 22.6348C18.5548 23.4375 17.4504 24.0762 16.2451 24.4922V26.4609C16.2451 27.1406 15.7523 27.7266 15.0754 27.8438C13.6148 28.0899 12.0829 28.1016 10.5688 27.8438C9.88601 27.7266 9.38132 27.1465 9.38132 26.4609V24.4922C8.17601 24.0703 7.07163 23.4375 6.12163 22.6348L4.39382 23.6133C3.80007 23.9531 3.03413 23.8242 2.59476 23.3027C1.63288 22.166 0.617569 20.8652 0.0891318 19.4531C-0.148368 18.8145 0.112882 18.0938 0.712569 17.7481L2.68976 16.7637C2.45819 15.5391 2.45819 14.2793 2.68976 13.0488L0.712569 12.0586C0.112882 11.7188 -0.154306 10.9981 0.0891318 10.3594C0.617569 8.94141 1.63288 7.64063 2.59476 6.50391C3.03413 5.98243 3.79413 5.85352 4.39382 6.19337L6.12163 7.17774C7.07163 6.37501 8.17601 5.73634 9.38132 5.32032V3.34571C9.38132 2.67188 9.8682 2.08594 10.5451 1.96876C12.0057 1.72266 13.5435 1.71094 15.0576 1.9629C15.7404 2.08009 16.2451 2.66016 16.2451 3.34571V5.31446C17.4504 5.73633 18.5548 6.36915 19.5048 7.17188L21.2326 6.18751C21.8263 5.84766 22.5923 5.97657 23.0316 6.49805C23.9935 7.63477 25.0029 8.93555 25.5313 10.3535C25.7688 10.9922 25.5373 11.7129 24.9376 12.0586L22.9366 13.043C23.1682 14.2734 23.1682 15.5332 22.9366 16.7637ZM15.9541 18C19.4691 13.4883 14.2501 8.3379 9.6782 11.8066C6.1632 16.3184 11.3823 21.4688 15.9541 18ZM30.406 28.7051L29.9191 29.543C29.741 29.8535 29.361 29.9824 29.0226 29.8594C28.3219 29.6016 27.6807 29.2324 27.1166 28.7695C26.8435 28.5469 26.7723 28.1543 26.9504 27.8496L27.4373 27.0117C27.0276 26.543 26.707 25.9981 26.4932 25.4063H25.5135C25.1573 25.4063 24.8485 25.1543 24.7891 24.8027C24.6704 24.0996 24.6644 23.3613 24.7891 22.6289C24.8485 22.2774 25.1573 22.0195 25.5135 22.0195H26.4932C26.707 21.4277 27.0276 20.8828 27.4373 20.4141L26.9504 19.5762C26.7723 19.2715 26.8376 18.8789 27.1166 18.6563C27.6807 18.1934 28.3279 17.8242 29.0226 17.5664C29.361 17.4434 29.741 17.5723 29.9191 17.8828L30.406 18.7207C31.0294 18.6094 31.6648 18.6094 32.2882 18.7207L32.7751 17.8828C32.9532 17.5723 33.3332 17.4434 33.6716 17.5664C34.3723 17.8242 35.0135 18.1934 35.5776 18.6563C35.8507 18.8789 35.922 19.2715 35.7438 19.5762L35.257 20.4141C35.6666 20.8828 35.9873 21.4277 36.201 22.0195H37.1807C37.537 22.0195 37.8457 22.2715 37.9051 22.6231C38.0238 23.3262 38.0298 24.0645 37.9051 24.7969C37.8457 25.1484 37.537 25.4063 37.1807 25.4063H36.201C35.9873 25.9981 35.6666 26.543 35.257 27.0117L35.7438 27.8496C35.922 28.1543 35.8566 28.5469 35.5776 28.7695C35.0135 29.2324 34.3663 29.6016 33.6716 29.8594C33.3332 29.9824 32.9532 29.8535 32.7751 29.543L32.2882 28.7051C31.6707 28.8164 31.0294 28.8164 30.406 28.7051ZM29.7826 25.2539C32.0685 26.9883 34.6751 24.416 32.9176 22.1602C30.6316 20.4258 28.0251 22.9981 29.7826 25.2539Z" fill="#E2211C"/>
</g>
<defs>
<clipPath id="clip0">
<rect width="38" height="30" fill="white"/>
</clipPath>
</defs>
</svg>
