<svg width="16" height="16" viewBox="0 0 16 16" fill="none" xmlns="http://www.w3.org/2000/svg">
<path d="M14.2998 8.71566C15.2814 6.24726 15.2317 3.47455 14.1461 1.06473L10.8689 1.00002C10.8146 0.998948 10.77 1.04244 10.7696 1.0967L10.742 5.11687C10.7418 5.14292 10.7521 5.16796 10.7705 5.18639L14.2998 8.71566ZM14.2998 8.71566C13.8132 9.93915 13.0733 11.0879 12.0806 12.0806C11.0879 13.0733 9.93915 13.8132 8.71566 14.2998M8.71566 14.2998C6.24726 15.2814 3.47455 15.2317 1.06473 14.1461L1.00002 10.8689C0.998948 10.8146 1.04244 10.77 1.0967 10.7696L5.11687 10.742C5.14292 10.7418 5.16796 10.7521 5.18639 10.7705L8.71566 14.2998Z" stroke="#595959" stroke-width="1.2"/>
</svg>
