<svg width="30" height="30" viewBox="0 0 30 30" fill="none" xmlns="http://www.w3.org/2000/svg">
<g clip-path="url(#clip0)">
<path d="M22.8747 15.8946C24.1017 12.8091 24.0396 9.34319 22.6826 6.33092L18.5861 6.25002C18.5183 6.24869 18.4625 6.30304 18.462 6.37087L18.4275 11.3961C18.4273 11.4287 18.4401 11.46 18.4631 11.483L22.8747 15.8946ZM22.8747 15.8946C22.2665 17.4239 21.3417 18.8599 20.1008 20.1008C18.8598 21.3417 17.4239 22.2665 15.8946 22.8747M15.8946 22.8747C12.8091 24.1017 9.34319 24.0396 6.33092 22.6826L6.25002 18.5861C6.24869 18.5183 6.30304 18.4625 6.37087 18.462L11.3961 18.4275C11.4287 18.4273 11.46 18.4401 11.483 18.4631L15.8946 22.8747Z" stroke="#E2211C" stroke-width="2"/>
<mask id="mask0" mask-type="alpha" maskUnits="userSpaceOnUse" x="-3" y="6" width="30" height="30">
<rect width="13.6336" height="27.5" transform="matrix(-0.707107 0.707107 0.707107 0.707107 6.73877 6.73413)" fill="black"/>
</mask>
<g mask="url(#mask0)">
<path d="M22.8747 15.8946C24.1017 12.8091 24.0396 9.34319 22.6826 6.33092L18.5861 6.25002C18.5183 6.24869 18.4625 6.30304 18.462 6.37087L18.4275 11.3961C18.4273 11.4287 18.4401 11.46 18.4631 11.483L22.8747 15.8946ZM22.8747 15.8946C22.2665 17.4239 21.3417 18.8599 20.1008 20.1008C18.8598 21.3417 17.4239 22.2665 15.8946 22.8747M15.8946 22.8747C12.8091 24.1017 9.34319 24.0396 6.33092 22.6826L6.25002 18.5861C6.24869 18.5183 6.30304 18.4625 6.37087 18.462L11.3961 18.4275C11.4287 18.4273 11.46 18.4401 11.483 18.4631L15.8946 22.8747Z" stroke="#EB5757" stroke-width="2"/>
</g>
</g>
<defs>
<clipPath id="clip0">
<rect width="30" height="30" fill="white"/>
</clipPath>
</defs>
</svg>
