<svg width="60" height="60" viewBox="0 0 60 60" fill="none" xmlns="http://www.w3.org/2000/svg">
<path d="M18.0862 33.1457C18.7615 33.4447 19.3499 33.6762 19.9093 33.956C25.0216 36.5411 28.0601 42.0875 27.4235 47.6531C26.7482 53.5661 22.5812 58.2733 16.8323 59.6333C8.22815 61.659 -0.0480197 55.0322 0.000209766 46.158C0.0484392 38.8754 5.78774 32.8563 13.0222 32.5187C13.2729 32.5091 13.5334 32.4609 13.7552 32.3548C17.6136 30.5799 21.4719 28.8051 25.3207 27.0206C25.4075 26.982 25.4943 26.9241 25.6583 26.818C21.7227 25.3711 18.8965 22.815 17.2856 19.0145C16.0703 16.1497 15.9159 13.1884 16.6972 10.1885C18.2309 4.31418 23.594 0.11822 29.6613 0.0024689C35.8733 -0.113282 41.3907 3.85118 43.1366 9.7641C44.1784 13.2945 43.889 16.7477 42.1913 20.037C40.4936 23.3166 37.8314 25.5158 34.272 26.818C36.0565 27.6476 37.7156 28.4096 39.3844 29.1813C41.246 30.0398 43.127 30.8597 44.9597 31.7664C45.9821 32.2776 47.0432 32.4802 48.1621 32.6248C54.1908 33.4062 59.0041 38.2484 59.8336 44.3157C61.049 53.1416 53.6892 60.8005 44.8729 59.8938C38.6513 59.2571 33.4714 54.3667 32.6515 48.3669C31.7448 41.7691 35.227 35.7501 41.2942 33.3869C41.4679 33.3194 41.6415 33.2422 41.9116 33.1361C41.6608 33.001 41.4968 32.9046 41.3232 32.8178C37.7156 31.149 34.1177 29.4803 30.5005 27.8308C30.2497 27.7151 29.8639 27.6765 29.6227 27.7826C25.8898 29.4706 22.1761 31.1973 18.4528 32.9046C18.3563 32.9817 18.2599 33.0493 18.0862 33.1457ZM26.1598 13.2463C24.3078 10.8637 24.848 7.97962 26.536 6.3784C28.3109 4.70002 31.0021 4.52639 32.9409 5.97327C33.9441 6.72565 34.6 7.70953 34.8604 8.93456C35.1884 10.5068 34.8122 11.9344 33.809 13.227C36.6642 14.5099 38.5548 16.603 39.558 19.5354C42.172 15.5999 41.9695 9.00208 37.0404 4.97974C32.4586 1.23714 25.5907 1.7966 21.6263 6.20477C17.6425 10.6419 18.337 16.7091 20.4398 19.4775C21.4237 16.5934 23.3143 14.5195 26.1598 13.2463ZM55.8017 52.0324C58.2517 48.3959 58.3964 41.9524 53.641 37.795C49.0592 33.7824 42.2299 34.1296 38.0629 38.5185C33.8669 42.9556 34.5518 49.1386 36.6835 52.0034C37.6674 49.0711 39.5966 46.9972 42.4035 45.7336C40.5033 43.216 41.1592 40.3801 42.8279 38.8368C44.6414 37.1584 47.3326 37.033 49.281 38.5378C50.2553 39.2902 50.8823 40.2837 51.1234 41.4894C51.4321 43.0424 51.0559 44.4507 50.0527 45.7336C52.9079 47.0165 54.8081 49.1 55.8017 52.0324ZM23.3143 52.0324C25.8512 48.2222 25.8415 41.5666 20.7389 37.4478C16.1088 33.7052 9.22167 34.3418 5.28615 38.8079C1.34099 43.2836 2.16089 49.3894 4.18652 51.9841C5.16076 49.0518 7.10922 46.9972 9.89689 45.724C8.08346 43.3607 8.5754 40.5152 10.2345 38.9043C11.9804 37.2163 14.6909 37.0137 16.6394 38.4317C17.6136 39.1455 18.2695 40.0811 18.5589 41.2579C18.964 42.8977 18.5782 44.3832 17.5654 45.7047C21.0379 47.7014 21.9735 48.7335 23.3143 52.0324ZM29.97 25.0046C32.5358 25.0046 35.1112 24.0882 37.0597 22.4967C37.378 22.2362 37.4841 21.9854 37.4262 21.5803C36.9054 17.7895 33.7705 15.0115 29.9989 15.0115C26.1984 15.0018 23.0346 17.8088 22.533 21.6092C22.4848 21.9951 22.5812 22.2362 22.8802 22.4677C24.9541 24.1268 27.3174 24.9564 29.97 25.0046ZM46.2329 57.4919C48.8663 57.3955 50.998 56.6624 52.9368 55.283C53.5638 54.8297 53.7664 54.386 53.612 53.6046C52.9079 49.9103 49.6476 47.3638 45.7121 47.5181C42.2299 47.6531 39.0853 50.6627 38.7863 54.193C38.767 54.4149 38.8924 54.7429 39.066 54.8779C41.2171 56.6817 43.7154 57.5016 46.2329 57.4919ZM13.7167 57.4823C16.3693 57.4534 18.7325 56.6335 20.816 54.9937C21.1729 54.7139 21.2404 54.4342 21.1826 54.0194C20.6038 50.2479 17.5268 47.5181 13.8324 47.5084C10.0126 47.4988 6.9356 50.1514 6.31826 53.9808C6.2411 54.4631 6.35685 54.7525 6.74268 55.0515C8.78761 56.6431 11.1123 57.4534 13.7167 57.4823ZM13.7359 44.9716C15.1153 44.9716 16.2342 43.8527 16.2439 42.4829C16.2535 41.1229 15.125 40.0039 13.7359 40.0039C12.3469 40.0039 11.228 41.1132 11.228 42.4829C11.228 43.8527 12.3662 44.9812 13.7359 44.9716ZM46.2136 44.9716C47.593 44.9812 48.7216 43.8816 48.7409 42.5022C48.7602 41.1325 47.6412 40.0039 46.2619 39.9943C44.8729 39.9847 43.7539 41.0746 43.7346 42.454C43.7154 43.8334 44.8343 44.9716 46.2136 44.9716ZM29.9893 12.4842C31.3686 12.4842 32.4875 11.3557 32.4875 9.99561C32.4875 8.62589 31.3686 7.51661 29.9796 7.51661C28.5906 7.51661 27.4813 8.62589 27.4813 10.0053C27.491 11.375 28.6099 12.4939 29.9893 12.4842Z" fill="#E2211C"/>
<path d="M12.4724 28.7279C10.3889 28.7279 8.73942 27.0592 8.74907 24.9757C8.75871 22.9018 10.4371 21.2331 12.5013 21.2427C14.5559 21.2524 16.2536 22.9597 16.2439 25.0046C16.2343 27.0688 14.5462 28.7376 12.4724 28.7279ZM12.482 23.7699C11.7875 23.7699 11.2281 24.3294 11.2377 25.0143C11.2473 25.6798 11.7875 26.2103 12.4531 26.2296C13.1476 26.2489 13.7167 25.6991 13.7263 25.0143C13.736 24.3198 13.1862 23.7699 12.482 23.7699Z" fill="#E2211C"/>
<path d="M52.4643 25.0143C52.4546 27.0881 50.7859 28.7376 48.7024 28.7279C46.6381 28.7183 44.9501 27.011 44.9694 24.966C44.9887 22.9115 46.6864 21.2331 48.7506 21.2427C50.8148 21.2524 52.4739 22.9404 52.4643 25.0143ZM48.7409 23.7603C48.0368 23.7603 47.4966 24.3005 47.4966 25.0046C47.4966 25.6991 48.0464 26.2393 48.7506 26.2296C49.4258 26.22 49.9467 25.6895 49.966 25.0239C49.9853 24.3198 49.4355 23.7603 48.7409 23.7603Z" fill="#E2211C"/>
<path d="M11.2186 6.23373C11.2283 8.31725 9.57885 9.97634 7.50498 9.98598C5.44076 9.99563 3.74309 8.32689 3.73344 6.26267C3.72379 4.21774 5.41182 2.51042 7.47604 2.49113C9.53062 2.48148 11.2186 4.15022 11.2186 6.23373ZM7.47604 4.99906C6.79119 4.99906 6.23172 5.57781 6.24137 6.26267C6.25102 6.93788 6.84906 7.51664 7.51463 7.4877C8.17055 7.46841 8.71072 6.90895 8.72036 6.25302C8.73001 5.57781 8.1609 4.99906 7.47604 4.99906Z" fill="#E2211C"/>
<path d="M52.3967 9.98598C50.2842 9.93775 48.6927 8.24007 48.7506 6.09869C48.8084 4.07305 50.5543 2.4236 52.5703 2.50077C54.6538 2.57794 56.3033 4.2949 56.2358 6.33019C56.1779 8.40405 54.4609 10.0342 52.3967 9.98598ZM53.7182 6.25302C53.7182 5.56816 53.1491 4.99906 52.4642 5.0087C51.789 5.01835 51.2199 5.60675 51.2295 6.28196C51.2488 6.93788 51.7986 7.48769 52.4546 7.49734C53.1394 7.50699 53.7182 6.92823 53.7182 6.25302Z" fill="#E2211C"/>
<path d="M29.9896 37.4864C27.9253 37.4864 26.2373 35.7983 26.2373 33.7438C26.2373 31.6892 27.935 29.9915 29.9896 29.9915C32.0538 29.9915 33.7322 31.6795 33.7418 33.7438C33.7322 35.808 32.0538 37.4864 29.9896 37.4864ZM29.9896 32.5091C29.295 32.5091 28.7356 33.0589 28.7356 33.7341C28.7356 34.419 29.295 34.9688 29.9896 34.9688C30.6841 34.9688 31.2435 34.419 31.2435 33.7438C31.2435 33.0589 30.6841 32.5091 29.9896 32.5091Z" fill="#E2211C"/>
</svg>
