<svg width="27" height="35" viewBox="0 0 27 35" fill="none" xmlns="http://www.w3.org/2000/svg">
<path d="M3.36133 35H23.8691C25.5654 35 26.9453 33.6201 26.9453 31.9238V10.2539H19.7676C18.0713 10.2539 16.6914 8.874 16.6914 7.17773V0H3.36133C1.66506 0 0.285156 1.3799 0.285156 3.07617V31.9238C0.285156 33.6201 1.66506 35 3.36133 35ZM9.51367 16.4746H19.7676C20.3343 16.4746 20.793 16.9332 20.793 17.5C20.793 18.0668 20.3343 18.5254 19.7676 18.5254H9.51367C8.9469 18.5254 8.48828 18.0668 8.48828 17.5C8.48828 16.9332 8.9469 16.4746 9.51367 16.4746ZM9.51367 20.5762H19.7676C20.3343 20.5762 20.793 21.0348 20.793 21.6016C20.793 22.1683 20.3343 22.627 19.7676 22.627H9.51367C8.9469 22.627 8.48828 22.1683 8.48828 21.6016C8.48828 21.0348 8.9469 20.5762 9.51367 20.5762ZM9.51367 24.6777H19.7676C20.3343 24.6777 20.793 25.1364 20.793 25.7031C20.793 26.2699 20.3343 26.7285 19.7676 26.7285H9.51367C8.9469 26.7285 8.48828 26.2699 8.48828 25.7031C8.48828 25.1364 8.9469 24.6777 9.51367 24.6777ZM5.41211 16.4746C5.9784 16.4746 6.4375 16.9337 6.4375 17.5C6.4375 18.0663 5.9784 18.5254 5.41211 18.5254C4.84582 18.5254 4.38672 18.0663 4.38672 17.5C4.38672 16.9337 4.84582 16.4746 5.41211 16.4746ZM5.41211 20.5762C5.9784 20.5762 6.4375 21.0353 6.4375 21.6016C6.4375 22.1679 5.9784 22.627 5.41211 22.627C4.84582 22.627 4.38672 22.1679 4.38672 21.6016C4.38672 21.0353 4.84582 20.5762 5.41211 20.5762ZM5.41211 24.6777C5.9784 24.6777 6.4375 25.1368 6.4375 25.7031C6.4375 26.2694 5.9784 26.7285 5.41211 26.7285C4.84582 26.7285 4.38672 26.2694 4.38672 25.7031C4.38672 25.1368 4.84582 24.6777 5.41211 24.6777Z" fill="#E2211C"/>
</svg>
