<svg width="466" height="337" viewBox="0 0 466 337" fill="none" xmlns="http://www.w3.org/2000/svg">
<path d="M340 28H335V23H333V28H328V30H333V35H335V30H340V28Z" fill="black"/>
<path d="M349.5 71C345.65 71 342.5 67.85 342.5 64C342.5 60.15 345.65 57 349.5 57C353.35 57 356.5 60.15 356.5 64C356.5 67.85 353.35 71 349.5 71ZM349.5 59C346.75 59 344.5 61.25 344.5 64C344.5 66.75 346.75 69 349.5 69C352.25 69 354.5 66.75 354.5 64C354.5 61.25 352.25 59 349.5 59Z" fill="black"/>
<path d="M83.5 5V0H81.5V5H76.5V7H81.5V12H83.5V7H88.5V5H83.5Z" fill="black"/>
<path d="M65.5 47.5C61.65 47.5 58.5 44.35 58.5 40.5C58.5 36.65 61.65 33.5 65.5 33.5C69.35 33.5 72.5 36.65 72.5 40.5C72.5 44.35 69.35 47.5 65.5 47.5ZM65.5 35.5C62.75 35.5 60.5 37.75 60.5 40.5C60.5 43.25 62.75 45.5 65.5 45.5C68.25 45.5 70.5 43.25 70.5 40.5C70.5 37.75 68.25 35.5 65.5 35.5Z" fill="black"/>
<path d="M394.6 216.409C391.4 216.409 385.75 215.309 383.25 208.159C380.25 199.709 372.45 202.359 372.15 202.459L371.5 200.559C371.6 200.509 381.55 197.159 385.15 207.459C388.15 216.009 396.15 214.259 396.5 214.209L396.95 216.159C396.85 216.209 395.95 216.409 394.6 216.409Z" fill="black"/>
<path d="M24.75 202.35C24.75 202.25 24.8 191.75 35.7 191.65C44.7 191.55 45.7 183.45 45.75 183.1L47.75 183.3C47.75 183.4 46.55 193.55 35.75 193.65C26.8 193.75 26.75 201.95 26.75 202.35H24.75Z" fill="black"/>
<path d="M133.299 282.361C136.793 281.54 138.961 278.042 138.14 274.547C137.319 271.052 133.82 268.885 130.326 269.706C126.831 270.527 124.663 274.025 125.484 277.52C126.305 281.015 129.804 283.182 133.299 282.361Z" fill="black"/>
<path d="M112.15 336.15L110.75 334.05C128.2 322.55 132.3 289.55 132.3 289.2L134.8 289.5C134.7 290.9 130.55 324.05 112.15 336.15Z" fill="black"/>
<path d="M142 275.45C142 275.45 131 272.65 121.95 278.05C121.95 278.05 122.65 293 132.85 291.7C144.5 290.25 142 275.45 142 275.45Z" fill="#E2211C"/>
<path d="M121.7 324.15C121.7 324.15 125.45 314.75 123.15 308.45C120.8 302.15 116.3 301.1 114.8 301.9C113.3 302.7 110.65 304.15 113.25 309.95C115.9 315.75 121.7 324.15 121.7 324.15Z" fill="black"/>
<path d="M95.9501 285.85C95.9501 285.85 92.7001 279.05 95.9501 270.25C99.2001 261.5 101.45 234.25 82.0002 235.55C62.5502 236.85 61.2501 262.8 63.2001 276.1C65.1501 289.4 62.2502 298.5 59.0002 305.95C55.7502 313.4 45.3502 318.95 47.0002 335.5H112.9C112.8 335.5 116.05 309.2 95.9501 285.85Z" fill="#FAFBFD"/>
<path d="M113.7 336.5H46L45.9001 335.6C44.7001 323.55 49.8 317.05 53.85 311.8C55.5 309.65 57.05 307.65 58 305.55C61.3 298 64.0501 289.25 62.1501 276.25C60.6001 265.65 61.3001 250.2 68.4001 241.45C71.8001 237.25 76.3501 234.9 81.9001 234.55C87.5001 234.2 91.8501 236 94.8001 240C101.15 248.5 99.25 264.15 96.85 270.65C94 278.35 96.4 284.45 96.75 285.35C116.8 308.75 113.8 335.4 113.75 335.65L113.7 336.5ZM47.85 334.5H111.9C112.2 329.8 112.75 306.85 95.2 286.5L95.1 286.4L95.0501 286.3C94.9001 286 91.65 279 95 269.95C97.2 264 99 248.95 93.2 241.2C90.65 237.8 86.9001 236.25 82.0501 236.55C77.0501 236.9 73 238.95 69.95 242.7C63.25 250.95 62.6501 265.8 64.1501 275.95C66.1501 289.5 63.1 298.9 59.85 306.35C58.85 308.65 57.2 310.8 55.45 313C51.5 318.1 47.05 323.85 47.85 334.5Z" fill="black"/>
<path d="M81.8 235.4C81.8 235.4 69.15 267.2 81.8 335.35V235.4Z" fill="#FAFBFD"/>
<path d="M80.85 335.5C74.3 300.2 74.65 274.8 76.1 259.7C77.7 243.3 80.8001 235.35 80.9001 235L82.75 235.75C82.6 236.05 70.3501 268.15 82.8001 335.15L80.85 335.5Z" fill="black"/>
<path d="M65.4807 249.844L63.9731 251.159L75.8995 264.84L77.4071 263.526L65.4807 249.844Z" fill="black"/>
<path d="M63.7253 259.083L62.2227 260.403L75.5547 275.579L77.0573 274.259L63.7253 259.083Z" fill="black"/>
<path d="M97.7459 288.329L77.8013 313.61L79.3715 314.848L99.3161 289.568L97.7459 288.329Z" fill="black"/>
<path d="M101.76 294.194L78.9844 322.397L80.5404 323.654L103.316 295.451L101.76 294.194Z" fill="black"/>
<path d="M166.25 237.25H152.75V324.75H166.25V237.25Z" fill="#FAFBFD"/>
<path d="M167.25 325.75H151.75V236.25H167.25V325.75ZM153.75 323.75H165.25V238.25H153.75V323.75Z" fill="black"/>
<path d="M176.25 223.75H142.25V242.25H176.25V223.75Z" fill="black"/>
<path d="M184.5 320H134.5V335H184.5V320Z" fill="black"/>
<path d="M212.35 229.25H113.2C108.85 229.25 105.05 226.25 104.05 222.05L74.6 100.35C73.15 94.45 77.65 88.75 83.7 88.75H153.25C157.4 88.75 161.1 91.5 162.25 95.5L194.25 204.75H221.75V219.85C221.75 225.05 217.55 229.25 212.35 229.25Z" fill="#FAFBFD"/>
<path d="M212.35 230.25H113.2C108.35 230.25 104.2 226.95 103.1 222.3L73.6501 100.6C72.9001 97.5001 73.6 94.2501 75.6 91.7501C77.6 89.2501 80.55 87.8 83.75 87.8H153.3C157.9 87.8 161.95 90.8501 163.25 95.2501L195.05 203.8H222.8V219.9C222.75 225.6 218.1 230.25 212.35 230.25ZM83.6501 89.7501C81.0501 89.7501 78.6501 90.9001 77.0501 92.9501C75.4501 95.0001 74.9 97.6001 75.5 100.1L104.95 221.8C105.85 225.6 109.25 228.25 113.15 228.25H212.3C216.95 228.25 220.7 224.45 220.7 219.85V205.75H193.5L193.3 205.05L161.3 95.8C160.25 92.25 156.95 89.8 153.25 89.8H83.6501V89.7501Z" fill="black"/>
<path d="M272.7 306.25L274.7 324.95H255.2L253.2 306.25H272.7Z" fill="#FAFBFD"/>
<path d="M275.8 325.95H254.3L252.1 305.25H273.6L275.8 325.95ZM256.1 323.95H273.6L271.8 307.25H254.3L256.1 323.95Z" fill="black"/>
<path d="M254.7 318.85C254.7 318.85 265.3 326.9 274.2 318.85L300.6 332.6C301.75 333.2 301.35 334.95 300 334.95H253.35C251.9 334.95 250.8 333.55 251.2 332.15L254.7 318.85Z" fill="black"/>
<path d="M316.85 217.6L329.55 231.5L313.85 243.05L301.15 229.15L316.85 217.6Z" fill="#FAFBFD"/>
<path d="M313.7 244.4L299.65 229.05L316.95 216.3L331 231.65L313.7 244.4ZM302.65 229.3L313.95 241.7L328.05 231.35L316.75 218.95L302.65 229.3Z" fill="black"/>
<path d="M309.8 238.4C309.8 238.4 323.1 238.6 325.5 226.85L354.9 222.3C356.2 222.1 356.9 223.75 355.85 224.55L318.3 252.15C317.1 253 315.45 252.55 314.9 251.15L309.8 238.4Z" fill="black"/>
<path d="M282.4 308.4C281.9 307.4 257.55 177.15 257.55 177.15L160.7 208.7L229.7 211.75L247.4 308.55L282.4 308.4Z" fill="black"/>
<path d="M156.75 137.25C156.75 137.25 129.25 176.25 136.25 192.75C143.25 209.25 155.75 209.75 166.25 207.75L256 187.5L296.5 248L320 219.5L267.75 151.75H199.75L201.25 140.75L156.75 137.25Z" fill="#2F2E40"/>
<path d="M191.75 30.25C191.75 30.25 177.25 49.25 189.75 66.25C189.75 66.25 192.75 68.75 206.75 70.25C206.75 70.25 227.25 72.75 234.25 67.75C234.25 67.75 239.25 65.25 236.25 56.75C233.25 48.25 227.75 28.75 214.25 24.25C200.75 19.75 191.75 30.25 191.75 30.25Z" fill="black"/>
<path d="M183.25 75.75L195.75 76.25L197.75 60.25C197.75 60.25 188.25 55.75 194.75 49.75C194.75 49.75 198.25 49.75 199.25 52.25C199.25 52.25 215.25 41.25 211.25 30.25C211.25 30.25 236.75 65.75 212.75 64.75L214.25 77.25L222.75 78.75L221.75 99.75L198.25 102.25L183.25 75.75Z" fill="#FAFBFD"/>
<path d="M197.7 103.3L181.5 74.6501L194.9 75.2001L196.7 60.8C195.3 60 192.05 57.8501 191.55 54.7501C191.25 52.7501 192.1 50.8501 194.1 49.0001L194.4 48.7501H194.8C194.95 48.7501 198 48.8 199.6 50.8C202.8 48.35 213.55 39.3001 210.35 30.6001L207.85 23.8L212.1 29.7001C212.75 30.6001 228.1 52.15 223.05 61.55C221.55 64.35 218.45 65.8 213.95 65.8L215.2 76.4001L223.85 77.9001L222.75 100.65L197.7 103.3ZM185 76.8L198.8 101.15L220.8 98.8L221.7 79.55L213.35 78.05L211.6 63.6501L212.75 63.7001C217.1 63.9001 219.95 62.8001 221.2 60.5001C224.3 54.7501 217.6 41.9001 212.85 34.4001C212.4 44.2001 200.35 52.6001 199.8 53.0001L198.75 53.7001L198.3 52.55C197.75 51.15 195.9 50.8001 195.1 50.7001C193.85 51.9501 193.3 53.2001 193.5 54.4001C193.85 56.7501 197 58.75 198.15 59.3L198.8 59.6001L198.7 60.3L196.6 77.2001L185 76.8Z" fill="black"/>
<path d="M175.65 78.7499L150.25 119.75L167.25 125.75L146.75 156.25C146.75 156.25 231.75 156.75 232.25 156.25C232.7 155.8 239.1 109.25 235.15 88.5499C234.45 84.7999 231.75 81.7499 228.15 80.4999L221.7 78.2499C221.7 78.2499 223.2 92.7499 211.7 98.7499C211.7 98.7499 199.2 89.4999 192.7 79.7499C189.6 75.0999 184.35 74.8499 180.8 75.3999C178.7 75.6999 176.8 76.8999 175.65 78.7499Z" fill="#FAFBFD"/>
<path d="M209.85 157.45C204.05 157.45 197.2 157.45 189.3 157.4C168.25 157.35 146.95 157.2 146.75 157.2H144.9L165.7 126.2L148.75 120.2L174.8 78.1C176.15 76.05 178.3 74.6499 180.7 74.2999C186.4 73.4999 190.95 75.2 193.55 79.1C199.15 87.5 209.4 95.65 211.8 97.45C222 91.65 220.75 78.3999 220.7 78.2499L220.55 76.7L228.5 79.45C232.45 80.8 235.35 84.1999 236.15 88.2499C238.25 99.1999 237.4 117 236.35 129.95C235.7 138.2 234.85 145.05 234.45 148.4C233.45 156.35 233.2 156.6 232.95 156.85C232.55 157.25 232.5 157.3 218.7 157.35C216.1 157.45 213.15 157.45 209.85 157.45ZM148.6 155.25C171.75 155.4 225 155.6 231.45 155.3C232.55 149.55 237.8 107.85 234.2 88.7C233.55 85.35 231.15 82.5499 227.9 81.3999L222.85 79.6499C222.85 83.6499 221.95 94.55 212.25 99.6L211.7 99.8999L211.2 99.5499C210.7 99.1499 198.5 90.0999 191.95 80.2999C189.2 76.1499 184.5 75.85 181.05 76.35C179.2 76.6 177.55 77.6499 176.55 79.2499L151.8 119.2L168.85 125.2L148.6 155.25Z" fill="black"/>
<path d="M153.7 114.15L137.85 137.95C135.45 141.5 138.05 146.3 142.3 146.3H188.3C188.3 146.3 193.8 143.8 192.8 138.3C192.8 138.3 197.8 139.8 200.3 139.3C202.8 138.8 207.3 136.8 206.3 133.8C205.5 131.4 198.8 128.8 198.8 128.8L193.7 127.1C191.95 126.9 190.2 127.75 189.3 129.3L183.3 138.8L160.8 136.8L168.8 123.3L153.7 114.15Z" fill="#FAFBFD"/>
<path d="M188.45 147.25H142.25C139.85 147.25 137.75 146 136.65 143.9C135.5 141.8 135.65 139.35 136.95 137.35L153.35 112.8L170.1 122.9L162.4 135.9L182.7 137.7L188.4 128.75C189.5 126.9 191.6 125.85 193.75 126.1L193.95 126.15L199.05 127.85C200.3 128.35 206.3 130.75 207.2 133.5C207.55 134.5 207.45 135.55 206.9 136.5C205.6 138.75 202.25 139.95 200.45 140.3C198.55 140.7 195.6 140.1 193.85 139.65C193.8 143.75 190.55 146.35 188.65 147.2L188.45 147.25ZM154 115.5L138.65 138.5C137.75 139.85 137.65 141.55 138.45 143C139.2 144.45 140.65 145.3 142.3 145.3H188.05C188.95 144.85 192.55 142.65 191.8 138.5L191.5 136.9L193.05 137.35C194.4 137.75 198.2 138.7 200.05 138.35C201.95 137.95 204.35 136.85 205.15 135.5C205.4 135.05 205.45 134.6 205.3 134.15C204.85 132.8 201 130.8 198.4 129.8L193.45 128.15C192.1 128.05 190.8 128.7 190.1 129.85L183.75 139.85L159.05 137.65L167.35 123.65L154 115.5Z" fill="black"/>
<path d="M301.85 94.8999H236.05C234.4 94.8999 232.95 95.8999 232.4 97.4499L214.2 147.25H288.25L305.5 100.1C306.45 97.5499 304.55 94.8999 301.85 94.8999Z" fill="black"/>
<path d="M225.1 142.15H179.7V147.25H225.1V142.15Z" fill="black"/>
<path d="M306.1 94.8999H240.3C238.65 94.8999 237.2 95.8999 236.65 97.4499L218.45 147.25H292.5L309.75 100.1C310.7 97.5499 308.8 94.8999 306.1 94.8999Z" fill="#E2211C"/>
<path d="M271.297 123.191C272.743 120.179 272.059 116.846 269.769 115.746C267.478 114.647 264.449 116.197 263.003 119.209C261.557 122.222 262.241 125.555 264.532 126.654C266.822 127.754 269.851 126.203 271.297 123.191Z" fill="black"/>
<path d="M249 154.5H235.55V334H249V154.5Z" fill="#FAFBFD"/>
<path d="M250 335H234.55V153.5H250V335ZM236.55 333H248V155.5H236.55V333Z" fill="black"/>
<path d="M375.75 146.25H107.75V159.25H375.75V146.25Z" fill="#FAFBFD"/>
<path d="M376.75 160.25H106.75V145.25H376.75V160.25ZM108.75 158.25H374.75V147.25H108.75V158.25Z" fill="black"/>
<path d="M217.5 335H267.5C267.5 326.7 260.8 320 252.5 320H232.5C224.2 320 217.5 326.7 217.5 335Z" fill="black"/>
<path d="M466 334.5H0V336.5H466V334.5Z" fill="black"/>
</svg>
