<svg width="37" height="30" viewBox="0 0 37 30" fill="none" xmlns="http://www.w3.org/2000/svg">
<path d="M12.95 18.75H14.8V5.625H12.95C11.9285 5.625 11.1 6.46465 11.1 7.5V16.875C11.1 17.9104 11.9285 18.75 12.95 18.75ZM33.3 16.875V7.5C33.3 6.46465 32.4715 5.625 31.45 5.625H29.6V18.75H31.45C32.4715 18.75 33.3 17.9104 33.3 16.875ZM36.075 22.5H7.4V0.9375C7.4 0.419531 6.98606 0 6.475 0H0.925C0.413938 0 0 0.419531 0 0.9375V2.8125C0 3.33047 0.413938 3.75 0.925 3.75H3.7V25.3125C3.7 25.8305 4.11394 26.25 4.625 26.25H9.41997C9.31648 26.5447 9.25 26.857 9.25 27.1875C9.25 28.7408 10.4924 30 12.025 30C13.5576 30 14.8 28.7408 14.8 27.1875C14.8 26.857 14.7335 26.5447 14.63 26.25H26.07C25.9665 26.5447 25.9 26.857 25.9 27.1875C25.9 28.7408 27.1424 30 28.675 30C30.2076 30 31.45 28.7408 31.45 27.1875C31.45 26.857 31.3835 26.5447 31.28 26.25H36.075C36.5861 26.25 37 25.8305 37 25.3125V23.4375C37 22.9195 36.5861 22.5 36.075 22.5ZM27.75 5.625V2.8125C27.75 1.25918 26.5076 0 24.975 0H19.425C17.8924 0 16.65 1.25918 16.65 2.8125V18.75H27.75V5.625ZM24.975 5.625H19.425V2.8125H24.975V5.625Z" fill="#E2211C"/>
</svg>
