<svg width="60" height="60" viewBox="0 0 60 60" fill="none" xmlns="http://www.w3.org/2000/svg">
<path d="M30.0001 6.5625C31.8214 6.56179 33.6367 6.77226 35.4096 7.18969L35.8406 5.36485C31.3326 4.30409 26.6208 4.49204 22.2117 5.90848L22.788 7.69278C25.1182 6.94141 27.5517 6.56002 30.0001 6.5625Z" fill="#E2211C"/>
<path d="M5.90848 22.2119C4.28051 27.2764 4.28051 32.7237 5.90848 37.7882L7.69277 37.2119C6.18574 32.5221 6.18574 27.478 7.69277 22.7882L5.90848 22.2119Z" fill="#E2211C"/>
<path d="M30.0001 53.4375C27.5518 53.44 25.1183 53.0586 22.7882 52.3073L22.2119 54.0915C26.9464 55.6129 32.0227 55.7148 36.8144 54.3845L36.3105 52.5783C34.2558 53.1499 32.1328 53.4389 30.0001 53.4375Z" fill="#E2211C"/>
<path d="M54.3389 36.9755C54.9864 34.7069 55.3141 32.3591 55.3125 30C55.3216 26.299 54.512 22.6417 52.9417 19.2903L51.2432 20.0846C52.6968 23.1875 53.4461 26.5735 53.4375 30C53.4391 32.1847 53.1357 34.359 52.5362 36.4598L54.3389 36.9755Z" fill="#E2211C"/>
<path d="M9.24926 24.1199C7.97483 28.644 8.20594 33.4598 9.90774 37.841L11.6538 37.159C10.1006 33.1583 9.88977 28.7611 11.053 24.6301L9.24926 24.1199Z" fill="#E2211C"/>
<path d="M35.8801 50.7507L35.3698 48.9461C31.2389 50.1095 26.8417 49.8987 22.841 48.3457L22.1589 50.0918C26.5402 51.7936 31.356 52.0247 35.8801 50.7503V50.7507Z" fill="#E2211C"/>
<path d="M47.8979 21.7873C49.0836 24.3625 49.6942 27.165 49.6873 30C49.6886 31.8155 49.4392 33.6226 48.9463 35.3699L50.751 35.8801C51.2907 33.9668 51.5637 31.988 51.5623 30C51.5696 26.8946 50.9005 23.8249 49.6016 21.0041L47.8979 21.7873Z" fill="#E2211C"/>
<path d="M24.1201 9.24924L24.6304 11.0539C28.1421 10.0659 31.8584 10.0659 35.3701 11.0539L35.8804 9.24924C32.035 8.16692 27.9655 8.16692 24.1201 9.24924Z" fill="#E2211C"/>
<path d="M41.25 26.7188C41.2487 26.0528 41.0453 25.403 40.6665 24.8553C40.2877 24.3076 39.7515 23.8879 39.1289 23.6517C38.8406 23.511 38.524 23.4378 38.2031 23.4375H34.6875V21.3281C34.6862 20.1475 34.2166 19.0156 33.3817 18.1808C32.5469 17.3459 31.415 16.8763 30.2344 16.875H28.125C27.8764 16.875 27.6379 16.9738 27.4621 17.1496C27.2863 17.3254 27.1875 17.5639 27.1875 17.8125V23.8733L25.0287 25.3125H19.6875C19.4389 25.3125 19.2004 25.4113 19.0246 25.5871C18.8488 25.7629 18.75 26.0014 18.75 26.25V37.5C18.75 37.7486 18.8488 37.9871 19.0246 38.1629C19.2004 38.3387 19.4389 38.4375 19.6875 38.4375H25.3125C25.5011 38.4376 25.6853 38.3808 25.8411 38.2745C25.9969 38.1682 26.117 38.0174 26.1858 37.8418L27.8285 38.3893C27.9241 38.4212 28.0242 38.4375 28.125 38.4375H38.2031C38.524 38.4373 38.8406 38.364 39.1289 38.2233C39.7515 37.9871 40.2877 37.5674 40.6665 37.0197C41.0453 36.472 41.2487 35.8222 41.25 35.1563C41.2522 34.4856 41.0468 33.8306 40.6621 33.2813C41.0985 32.6544 41.3023 31.8949 41.2385 31.1337C41.1747 30.3726 40.8472 29.6576 40.3125 29.1122V29.0128C40.916 28.4022 41.2531 27.5773 41.25 26.7188ZM20.625 36.5625V27.1875H24.375V36.5625H20.625ZM38.8113 30.2835C38.9863 30.4138 39.1283 30.5832 39.2262 30.7781C39.324 30.973 39.375 31.1881 39.375 31.4063C39.375 31.6244 39.324 31.8395 39.2262 32.0344C39.1283 32.2293 38.9863 32.3987 38.8113 32.529C38.6951 32.6176 38.6008 32.7319 38.536 32.863C38.4711 32.994 38.4374 33.1382 38.4375 33.2844C38.4375 33.4297 38.4713 33.573 38.5362 33.703C38.601 33.833 38.6952 33.9461 38.8113 34.0335C39.015 34.1854 39.1735 34.3898 39.27 34.6249C39.3665 34.86 39.3972 35.1168 39.359 35.368C39.3208 35.6192 39.2151 35.8553 39.053 36.051C38.891 36.2468 38.6789 36.3948 38.4393 36.4793C38.3957 36.4948 38.3533 36.5135 38.3125 36.5352C38.2789 36.5533 38.2413 36.5627 38.2031 36.5625H28.2773L26.25 35.8868V26.7517L28.6451 25.155C28.7735 25.0694 28.8788 24.9534 28.9516 24.8173C29.0244 24.6813 29.0625 24.5293 29.0625 24.375V18.75H30.2344C30.9179 18.7508 31.5732 19.0226 32.0565 19.506C32.5399 19.9893 32.8117 20.6446 32.8125 21.3281V24.375C32.8125 24.6236 32.9113 24.8621 33.0871 25.0379C33.2629 25.2137 33.5014 25.3125 33.75 25.3125H38.2031C38.2413 25.3124 38.279 25.3218 38.3127 25.3398C38.3535 25.3616 38.3958 25.3803 38.4394 25.3957C38.679 25.4802 38.8911 25.6283 39.0531 25.824C39.2151 26.0197 39.3209 26.2558 39.3591 26.507C39.3973 26.7582 39.3665 27.0151 39.27 27.2501C39.1735 27.4852 39.015 27.6896 38.8113 27.8415C38.6952 27.9289 38.601 28.042 38.5362 28.172C38.4713 28.302 38.4375 28.4453 38.4375 28.5906V29.5344C38.4375 29.6797 38.4713 29.823 38.5362 29.953C38.601 30.083 38.6952 30.1961 38.8113 30.2835Z" fill="#E2211C"/>
<path d="M23.4375 32.8125H21.5625V34.6875H23.4375V32.8125Z" fill="#E2211C"/>
<path d="M12.1875 22.5C14.2271 22.5 16.2209 21.8952 17.9168 20.762C19.6127 19.6289 20.9345 18.0183 21.715 16.1339C22.4955 14.2496 22.6998 12.1761 22.3018 10.1756C21.9039 8.17521 20.9218 6.3377 19.4795 4.89547C18.0373 3.45324 16.1998 2.47107 14.1994 2.07316C12.1989 1.67525 10.1254 1.87947 8.24108 2.66C6.35672 3.44053 4.74612 4.7623 3.61297 6.45819C2.47982 8.15407 1.875 10.1479 1.875 12.1875C1.8781 14.9216 2.96559 17.5428 4.89889 19.4761C6.83218 21.4094 9.45341 22.4969 12.1875 22.5ZM12.1875 3.75C13.8563 3.75 15.4876 4.24486 16.8751 5.17198C18.2627 6.0991 19.3441 7.41686 19.9827 8.95861C20.6214 10.5004 20.7884 12.1969 20.4629 13.8336C20.1373 15.4703 19.3337 16.9737 18.1537 18.1537C16.9737 19.3337 15.4703 20.1373 13.8336 20.4629C12.1969 20.7884 10.5004 20.6214 8.95861 19.9827C7.41686 19.3441 6.0991 18.2627 5.17198 16.8751C4.24485 15.4876 3.75 13.8563 3.75 12.1875C3.75251 9.95051 4.64227 7.80586 6.22406 6.22407C7.80586 4.64227 9.95051 3.75252 12.1875 3.75Z" fill="#E2211C"/>
<path d="M58.125 4.6875V2.8125C58.125 2.56386 58.0262 2.3254 57.8504 2.14959C57.6746 1.97377 57.4361 1.875 57.1875 1.875H38.4375C38.1889 1.875 37.9504 1.97377 37.7746 2.14959C37.5988 2.3254 37.5 2.56386 37.5 2.8125V16.875C37.5 17.1236 37.5988 17.3621 37.7746 17.5379C37.9504 17.7137 38.1889 17.8125 38.4375 17.8125H42.1875V21.5625C42.1875 21.8111 42.2863 22.0496 42.4621 22.2254C42.6379 22.4012 42.8764 22.5 43.125 22.5H45C45.1406 22.5 45.2794 22.4685 45.4061 22.4076C45.5328 22.3467 45.6442 22.2582 45.7321 22.1484L49.2008 17.8125H55.3125C55.4356 17.8125 55.5575 17.7883 55.6713 17.7411C55.785 17.694 55.8884 17.625 55.9754 17.5379L57.8504 15.6629C57.9375 15.5759 58.0065 15.4725 58.0536 15.3588C58.1008 15.245 58.125 15.1231 58.125 15V6.5625H56.25V14.6116L54.9241 15.9375H48.75C48.6094 15.9375 48.4706 15.969 48.3439 16.0299C48.2172 16.0908 48.1058 16.1793 48.0179 16.2891L44.5492 20.625H44.0625V16.875C44.0625 16.6264 43.9637 16.3879 43.7879 16.2121C43.6121 16.0363 43.3736 15.9375 43.125 15.9375H39.375V3.75H56.25V4.6875H58.125Z" fill="#E2211C"/>
<path d="M46.875 7.5H45V12.1875H46.875V7.5Z" fill="#E2211C"/>
<path d="M50.625 7.5H48.75V12.1875H50.625V7.5Z" fill="#E2211C"/>
<path d="M10.3125 17.8125H12.1875V12.1875H14.0625V10.3125H12.1875V9.84375C12.1879 9.47091 12.3362 9.11346 12.5998 8.84983C12.8635 8.58619 13.2209 8.4379 13.5938 8.4375H15V6.5625H13.5938C12.7238 6.56349 11.8898 6.90951 11.2747 7.52465C10.6595 8.13979 10.3135 8.97381 10.3125 9.84375V10.3125H9.375V12.1875H10.3125V17.8125Z" fill="#E2211C"/>
<path d="M16.1719 39.375H6.32812C5.14749 39.3763 4.0156 39.8459 3.18076 40.6808C2.34593 41.5156 1.87633 42.6475 1.875 43.8281V47.8125H3.75V43.8281C3.75078 43.1446 4.02265 42.4893 4.50597 42.006C4.9893 41.5226 5.6446 41.2508 6.32812 41.25H16.1719C16.8554 41.2508 17.5107 41.5226 17.994 42.006C18.4774 42.4893 18.7492 43.1446 18.75 43.8281V53.6719C18.7492 54.3554 18.4774 55.0107 17.994 55.494C17.5107 55.9774 16.8554 56.2492 16.1719 56.25H6.32812C5.6446 56.2492 4.9893 55.9774 4.50597 55.494C4.02265 55.0107 3.75078 54.3554 3.75 53.6719V49.6875H1.875V53.6719C1.87633 54.8525 2.34593 55.9844 3.18076 56.8192C4.0156 57.6541 5.14749 58.1237 6.32812 58.125H16.1719C17.3525 58.1237 18.4844 57.6541 19.3192 56.8192C20.1541 55.9844 20.6237 54.8525 20.625 53.6719V43.8281C20.6237 42.6475 20.1541 41.5156 19.3192 40.6808C18.4844 39.8459 17.3525 39.3763 16.1719 39.375Z" fill="#E2211C"/>
<path d="M11.25 44.0625C10.3229 44.0625 9.41662 44.3374 8.64577 44.8525C7.87491 45.3676 7.2741 46.0996 6.91932 46.9562C6.56453 47.8127 6.4717 48.7552 6.65257 49.6645C6.83344 50.5738 7.27988 51.409 7.93544 52.0646C8.591 52.7201 9.42623 53.1666 10.3355 53.3474C11.2448 53.5283 12.1873 53.4355 13.0438 53.0807C13.9004 52.7259 14.6324 52.1251 15.1475 51.3542C15.6626 50.5834 15.9375 49.6771 15.9375 48.75C15.9361 47.5072 15.4418 46.3158 14.563 45.437C13.6842 44.5582 12.4928 44.0639 11.25 44.0625ZM11.25 51.5625C10.6937 51.5625 10.15 51.3975 9.68746 51.0885C9.22495 50.7795 8.86446 50.3402 8.65159 49.8263C8.43872 49.3124 8.38302 48.7469 8.49154 48.2013C8.60006 47.6557 8.86793 47.1546 9.26126 46.7613C9.6546 46.3679 10.1557 46.1001 10.7013 45.9915C11.2469 45.883 11.8124 45.9387 12.3263 46.1516C12.8402 46.3645 13.2795 46.7249 13.5885 47.1875C13.8976 47.65 14.0625 48.1937 14.0625 48.75C14.0616 49.4957 13.765 50.2105 13.2378 50.7378C12.7105 51.265 11.9957 51.5616 11.25 51.5625Z" fill="#E2211C"/>
<path d="M16.875 43.125H15V45H16.875V43.125Z" fill="#E2211C"/>
<path d="M47.8125 37.5C45.7729 37.5 43.7791 38.1048 42.0832 39.238C40.3873 40.3711 39.0655 41.9817 38.285 43.8661C37.5045 45.7504 37.3002 47.8239 37.6982 49.8244C38.0961 51.8248 39.0782 53.6623 40.5205 55.1045C41.9627 56.5468 43.8002 57.5289 45.8006 57.9268C47.8011 58.3248 49.8746 58.1205 51.7589 57.34C53.6433 56.5595 55.2539 55.2377 56.387 53.5418C57.5202 51.8459 58.125 49.8521 58.125 47.8125C58.1219 45.0784 57.0344 42.4572 55.1011 40.5239C53.1678 38.5906 50.5466 37.5031 47.8125 37.5ZM47.8125 56.25C46.1437 56.25 44.5124 55.7551 43.1249 54.828C41.7373 53.9009 40.6559 52.5831 40.0173 51.0414C39.3787 49.4996 39.2116 47.8031 39.5371 46.1664C39.8627 44.5297 40.6663 43.0263 41.8463 41.8463C43.0263 40.6663 44.5297 39.8627 46.1664 39.5371C47.8031 39.2116 49.4996 39.3787 51.0414 40.0173C52.5831 40.6559 53.9009 41.7373 54.828 43.1249C55.7552 44.5124 56.25 46.1437 56.25 47.8125C56.2475 50.0495 55.3577 52.1941 53.7759 53.7759C52.1942 55.3577 50.0495 56.2475 47.8125 56.25Z" fill="#E2211C"/>
<path d="M52.9193 46.974L45.4193 43.224C45.2764 43.1526 45.1175 43.1188 44.9579 43.126C44.7983 43.1332 44.6431 43.181 44.5072 43.265C44.3712 43.349 44.259 43.4664 44.1812 43.606C44.1034 43.7455 44.0625 43.9027 44.0625 44.0625V51.5625C44.0625 51.7223 44.1034 51.8795 44.1812 52.019C44.259 52.1586 44.3712 52.276 44.5072 52.36C44.6431 52.444 44.7983 52.4918 44.9579 52.499C45.1175 52.5062 45.2764 52.4724 45.4193 52.401L52.9193 48.651C53.075 48.5731 53.2059 48.4534 53.2974 48.3053C53.389 48.1572 53.4374 47.9866 53.4374 47.8125C53.4374 47.6384 53.389 47.4678 53.2974 47.3197C53.2059 47.1716 53.075 47.0519 52.9193 46.974ZM45.9375 50.0456V45.5794L50.4036 47.8125L45.9375 50.0456Z" fill="#E2211C"/>
</svg>
