<svg width="202" height="100" viewBox="0 0 202 100" fill="none" xmlns="http://www.w3.org/2000/svg">
<path fill-rule="evenodd" clip-rule="evenodd" d="M79.8267 47.147H108.176V82.2466H79.8267V47.147Z" fill="#1A170F"/>
<rect x="77.1069" y="71.4467" width="18.2248" height="2.69997" fill="#858585"/>
<path fill-rule="evenodd" clip-rule="evenodd" d="M84.4312 59.2969L87.0509 58.6437L89.6637 69.1228L87.0439 69.776L84.4312 59.2969Z" fill="#E1E1F0"/>
<path fill-rule="evenodd" clip-rule="evenodd" d="M81.7234 51.9938L86.0539 50.9111L88.6246 61.2217C88.9185 62.4001 88.2018 63.5937 87.0236 63.8883L86.9617 63.9037C85.7824 64.1986 84.5875 63.4812 84.2934 62.3017L81.7234 51.9938Z" fill="#FFD200"/>
<path fill-rule="evenodd" clip-rule="evenodd" d="M85.2065 74.8217H81.8316V85.6216H85.2065V74.8217Z" fill="#AEAFBE"/>
<path fill-rule="evenodd" clip-rule="evenodd" d="M85.8813 74.4934C85.8813 74.0382 85.3895 73.7528 84.9943 73.9786C84.812 74.0828 84.5882 74.0828 84.4059 73.9786L84.1095 73.8092C83.7435 73.6001 83.2942 73.6001 82.9283 73.8092L82.6318 73.9786C82.4495 74.0828 82.2258 74.0828 82.0435 73.9786C81.6482 73.7528 81.1564 74.0382 81.1564 74.4934V74.7531C81.1564 75.1638 81.4893 75.4967 81.9 75.4967H85.1377C85.5484 75.4967 85.8813 75.1638 85.8813 74.7531V74.4934Z" fill="#F36155"/>
<rect width="6.07493" height="13.4999" rx="3.03747" transform="matrix(-1 0 0 1 86.5566 84.2716)" fill="#F36155"/>
<rect width="7.42492" height="2.69997" rx="1.34999" transform="matrix(-1 0 0 1 87.2314 95.0715)" fill="#C54B41"/>
<path fill-rule="evenodd" clip-rule="evenodd" d="M79.8066 93.7215C79.8066 92.6031 78.9 91.6965 77.7817 91.6965C76.6633 91.6965 75.7567 92.6031 75.7567 93.7215V97.0965H79.8066V93.7215Z" fill="#C54B41"/>
<path fill-rule="evenodd" clip-rule="evenodd" d="M88.5815 97.7715C88.5815 97.0259 87.9771 96.4215 87.2316 96.4215H75.7567C75.0111 96.4215 74.4067 97.0259 74.4067 97.7715C74.4067 98.517 75.0111 99.1214 75.7567 99.1214H87.2316C87.9771 99.1214 88.5815 98.517 88.5815 97.7715Z" fill="#F36155"/>
<path fill-rule="evenodd" clip-rule="evenodd" d="M79.828 91.1267C79.7309 90.5595 79.1909 90.1794 78.6242 90.2794L48.7621 95.5449C48.1993 95.6441 47.8224 96.1795 47.9189 96.7429C48.0161 97.3101 48.556 97.6902 49.1228 97.5903L78.9848 92.3248C79.5477 92.2255 79.9245 91.6901 79.828 91.1267Z" fill="#AEAFBE"/>
<rect width="5.39994" height="3.37496" rx="1.68748" transform="matrix(-0.984808 0.173648 0.173648 0.984808 79.4727 89.5154)" fill="#F36155"/>
<ellipse cx="92.6319" cy="72.7967" rx="5.39994" ry="10.1249" fill="#BBBBCA"/>
<ellipse cx="93.982" cy="72.7967" rx="5.39994" ry="10.1249" fill="#E1E1F0"/>
<ellipse cx="94.3195" cy="72.7967" rx="2.36247" ry="4.04996" fill="#484646"/>
<ellipse cx="94.9943" cy="72.7967" rx="2.36247" ry="4.04996" fill="#BBBBCA"/>
<path fill-rule="evenodd" clip-rule="evenodd" d="M85.207 69.4218C85.207 67.9306 86.4158 66.7218 87.907 66.7218V79.5467C86.4158 79.5467 85.207 78.3378 85.207 76.8467V69.4218Z" fill="#C54B41"/>
<path fill-rule="evenodd" clip-rule="evenodd" d="M87.9072 66.7218H91.9572L89.9322 73.1342L91.9572 79.5467H87.9072V66.7218Z" fill="#C54B41"/>
<path fill-rule="evenodd" clip-rule="evenodd" d="M91.9569 66.7218L91.9571 69.2696C91.1588 69.9195 90.6069 71.3142 90.6069 72.93C90.6069 74.5457 91.1588 75.9404 91.9571 76.5903L91.9569 79.5467H89.9319C88.4408 79.5467 87.2319 78.3378 87.2319 76.8467V69.4218C87.2319 67.9306 88.4408 66.7218 89.9319 66.7218H91.9569Z" fill="#F36155"/>
<ellipse cx="24.4573" cy="75.1592" rx="11.4749" ry="19.2373" fill="#31302D"/>
<rect x="23.7822" y="55.9219" width="10.1249" height="38.4746" fill="#31302D"/>
<ellipse cx="33.2322" cy="75.1592" rx="11.4749" ry="19.2373" fill="#53524D"/>
<ellipse cx="33.9072" cy="75.4967" rx="6.74993" ry="12.8249" fill="#31302D"/>
<mask id="mask0" mask-type="alpha" maskUnits="userSpaceOnUse" x="27" y="62" width="14" height="27">
<ellipse cx="33.9072" cy="75.4967" rx="6.74993" ry="12.8249" fill="white"/>
</mask>
<g mask="url(#mask0)">
</g>
<path fill-rule="evenodd" clip-rule="evenodd" d="M160.826 47.147H189.175V82.2466H160.826V47.147Z" fill="#1A170F"/>
<ellipse cx="166.881" cy="75.1592" rx="11.4749" ry="19.2373" fill="#31302D"/>
<rect x="166.206" y="55.9219" width="10.1249" height="38.4746" fill="#31302D"/>
<ellipse cx="175.656" cy="75.1592" rx="11.4749" ry="19.2373" fill="#53524D"/>
<ellipse cx="176.331" cy="75.4967" rx="6.74993" ry="12.8249" fill="#E1E1F0"/>
<mask id="mask1" mask-type="alpha" maskUnits="userSpaceOnUse" x="169" y="62" width="15" height="27">
<ellipse cx="176.331" cy="75.4967" rx="6.74993" ry="12.8249" fill="white"/>
</mask>
<g mask="url(#mask1)">
<ellipse cx="181.731" cy="68.7468" rx="2.69997" ry="3.37496" fill="#1A170F"/>
<ellipse cx="170.931" cy="68.7468" rx="2.69997" ry="3.37496" fill="#1A170F"/>
<ellipse cx="181.731" cy="82.9217" rx="2.69997" ry="3.37496" fill="#1A170F"/>
<ellipse cx="170.931" cy="82.9217" rx="2.69997" ry="3.37496" fill="#1A170F"/>
</g>
<path fill-rule="evenodd" clip-rule="evenodd" d="M35.9321 28.9222C35.9321 25.9399 38.3498 23.5223 41.3321 23.5223L43.8421 23.5223C45.8679 23.5223 47.5662 25.0531 47.7758 27.0681L48.0224 29.4383C49.467 31.4925 47.9977 34.3222 45.4863 34.3222H41.3321C38.3498 34.3222 35.9321 31.9045 35.9321 28.9222Z" fill="#C9CADF"/>
<path fill-rule="evenodd" clip-rule="evenodd" d="M40.0019 31.6222C50.4019 12.4863 70.4364 0.57251 92.2157 0.57251H159.27C172.997 0.57251 185.495 8.48431 191.368 20.892C196.184 31.0686 198.682 42.189 198.682 53.4478C198.682 57.392 198.682 61.05 198.682 63.1712C200.515 63.1712 202 64.6566 202 66.489V73.0464C202 78.5003 197.579 82.9216 192.125 82.9216H189.534C188.664 82.9216 188.024 82.0414 188.211 81.1924C188.838 78.3435 189.63 72.1189 187.421 63.6042C187.294 63.1136 188.245 63.1152 188.245 63.1152L188.196 61.8011C187.941 55.0433 182.388 49.6966 175.625 49.6966C169.073 49.6966 163.618 54.7263 163.088 61.257L161.383 82.2277C161.351 82.6216 161.039 82.927 160.644 82.9344C154.329 83.0518 106.349 83.9328 106.132 83.5966C105.899 83.2368 107.604 76.6667 106.93 72.4301C106.848 71.9159 107.355 71.8342 107.355 71.8342L106.985 61.1366C106.751 54.379 101.205 49.0216 94.4435 49.0216C87.8992 49.0216 82.4536 54.0508 81.934 60.5744L80.1902 82.4696C80.1699 82.7249 79.9568 82.9216 79.7008 82.9216H51.6308H4.93233C2.29538 82.9216 0.157715 80.784 0.157715 78.147L0.157715 74.979C0.157715 73.1707 1.21287 71.5287 2.85769 70.7774C2.85769 54.4531 13.44 40.0127 29.0061 35.0956L40.0019 31.6222Z" fill="#D7432B"/>
<mask id="mask2" mask-type="alpha" maskUnits="userSpaceOnUse" x="0" y="0" width="203" height="84">
<path fill-rule="evenodd" clip-rule="evenodd" d="M40.0019 31.6222C50.4019 12.4863 70.4364 0.57251 92.2157 0.57251H159.27C172.997 0.57251 185.495 8.48431 191.368 20.892C196.184 31.0686 198.682 42.189 198.682 53.4478C198.682 57.392 198.682 61.05 198.682 63.1712C200.515 63.1712 202 64.6566 202 66.489V73.0464C202 78.5003 197.579 82.9216 192.125 82.9216H189.534C188.664 82.9216 188.024 82.0414 188.211 81.1924C188.838 78.3435 189.63 72.1189 187.421 63.6042C187.294 63.1136 188.245 63.1152 188.245 63.1152L188.196 61.8011C187.941 55.0433 182.388 49.6966 175.625 49.6966C169.073 49.6966 163.618 54.7263 163.088 61.257L161.383 82.2277C161.351 82.6216 161.039 82.927 160.644 82.9344C154.329 83.0518 106.349 83.9328 106.132 83.5966C105.899 83.2368 107.604 76.6667 106.93 72.4301C106.848 71.9159 107.355 71.8342 107.355 71.8342L106.985 61.1366C106.751 54.379 101.205 49.0216 94.4435 49.0216C87.8992 49.0216 82.4536 54.0508 81.934 60.5744L80.1902 82.4696C80.1699 82.7249 79.9568 82.9216 79.7008 82.9216H51.6308H4.93233C2.29538 82.9216 0.157715 80.784 0.157715 78.147L0.157715 74.979C0.157715 73.1707 1.21287 71.5287 2.85769 70.7774C2.85769 54.4531 13.44 40.0127 29.0061 35.0956L40.0019 31.6222Z" fill="white"/>
</mask>
<g mask="url(#mask2)">
<path fill-rule="evenodd" clip-rule="evenodd" d="M0.177246 71.842L8.03182 69.169C8.84249 68.8931 9.55883 68.3941 10.0985 67.7292C10.9624 66.6649 12.2601 66.0468 13.6308 66.0468H43.8308C45.2482 66.0468 46.6073 66.6113 47.6077 67.6154C48.343 68.3535 49.2784 68.8599 50.2983 69.0722L63.6069 71.842L82.5264 68.7468V84.2716H0.177246L0.177246 71.842Z" fill="#484646"/>
<path fill-rule="evenodd" clip-rule="evenodd" d="M0.852539 50.4813C0.852539 47.5214 3.25194 45.122 6.21175 45.122H14.3524L12.3274 56.5969L5.58557 55.8038C2.88661 55.4862 0.852539 53.1988 0.852539 50.4813Z" fill="white"/>
<path fill-rule="evenodd" clip-rule="evenodd" d="M46.752 45.122H62.9394C66.1489 45.122 68.6113 47.9697 68.1479 51.1456C67.7872 53.6178 65.7383 55.4959 63.2441 55.6406L46.752 56.5969V45.122Z" fill="white"/>
<path fill-rule="evenodd" clip-rule="evenodd" d="M94.0013 31.6222C104.401 12.4863 124.436 0.57251 146.215 0.57251H164.917C178.77 0.57251 191.37 8.93149 195.418 22.1796C198.629 32.6874 201.594 44.916 201.382 53.7213C203.215 53.7213 204.7 55.2067 204.7 57.0391V69.9437C204.7 77.1112 198.89 82.9216 191.722 82.9216H105.63H76.1451C69.2205 82.9216 63.6069 77.3081 63.6069 70.3834C63.6069 54.0963 73.627 39.4873 88.8214 33.6218L94.0013 31.6222Z" fill="#FE553A"/>
<path fill-rule="evenodd" clip-rule="evenodd" d="M140.556 30.9472H141.906L142.581 40.7346V72.1217H141.231V40.7346L140.556 30.9472Z" fill="black" fill-opacity="0.0900896"/>
<path fill-rule="evenodd" clip-rule="evenodd" d="M104.106 30.9472H105.456L106.131 40.7346V72.1217H104.781V40.7346L104.106 30.9472Z" fill="black" fill-opacity="0.0900896"/>
<path opacity="0.442476" fill-rule="evenodd" clip-rule="evenodd" d="M82.7504 38.7518C87.0539 37.1613 91.6054 36.3471 96.1934 36.3471H187.229C187.996 36.3471 188.697 36.7805 189.04 37.4665C189.714 38.8129 188.735 40.3971 187.229 40.3971H91.0327L83.4154 41.4233C81.7765 41.6442 81.1992 39.3251 82.7504 38.7518Z" fill="white"/>
<path fill-rule="evenodd" clip-rule="evenodd" d="M167.556 30.7537H168.906L169.581 40.5411V71.9282H168.231V40.5411L167.556 30.7537Z" fill="black" fill-opacity="0.0900896"/>
<path fill-rule="evenodd" clip-rule="evenodd" d="M66.6849 45.122C67.8032 45.122 68.7098 46.0287 68.7098 47.147C68.7098 47.2448 68.7028 47.3425 68.6886 47.4394L67.7667 53.7584C67.628 54.7095 66.8397 55.4321 65.8802 55.4877L63.578 55.6213C63.208 51.4676 64.233 48.1267 66.2294 45.352L66.398 45.122L66.6849 45.122Z" fill="#FFA13E"/>
<path fill-rule="evenodd" clip-rule="evenodd" d="M5.89538 59.9719H8.93284C10.6104 59.9719 11.9703 61.3318 11.9703 63.0093C11.9703 64.6869 10.6104 66.0468 8.93284 66.0468H5.89538C4.21783 66.0468 2.85791 64.6869 2.85791 63.0093C2.85791 61.3318 4.21783 59.9719 5.89538 59.9719Z" fill="#DCF0FE"/>
<mask id="mask3" mask-type="alpha" maskUnits="userSpaceOnUse" x="2" y="59" width="10" height="8">
<path fill-rule="evenodd" clip-rule="evenodd" d="M5.89538 59.9719H8.93284C10.6104 59.9719 11.9703 61.3318 11.9703 63.0093C11.9703 64.6869 10.6104 66.0468 8.93284 66.0468H5.89538C4.21783 66.0468 2.85791 64.6869 2.85791 63.0093C2.85791 61.3318 4.21783 59.9719 5.89538 59.9719Z" fill="white"/>
</mask>
<g mask="url(#mask3)">
<path fill-rule="evenodd" clip-rule="evenodd" d="M7.71764 59.9718H10.7551C12.4327 59.9718 13.7926 61.3318 13.7926 63.0093C13.7926 64.6868 12.4327 66.0468 10.7551 66.0468H7.71764C6.0401 66.0468 4.68018 64.6868 4.68018 63.0093C4.68018 61.3318 6.0401 59.9718 7.71764 59.9718Z" fill="white"/>
</g>
<path fill-rule="evenodd" clip-rule="evenodd" d="M193.881 47.147C193.881 43.7919 196.601 41.0721 199.956 41.0721V56.5969C196.601 56.5969 193.881 53.8771 193.881 50.522V47.147Z" fill="#FF8300"/>
<path fill-rule="evenodd" clip-rule="evenodd" d="M195.23 47.147C195.23 43.7919 197.95 41.0721 201.305 41.0721V56.5969C197.95 56.5969 195.23 53.8771 195.23 50.522V47.147Z" fill="white" fill-opacity="0.244619"/>
<path fill-rule="evenodd" clip-rule="evenodd" d="M186.456 63.1152H208.055V83.5966H186.456V63.1152Z" fill="#52526B"/>
<path fill-rule="evenodd" clip-rule="evenodd" d="M106.131 71.8522L146.25 70.5726C147.351 70.5375 148.398 70.0913 149.185 69.3219L150.356 68.1781C150.953 67.5947 151.704 67.1932 152.52 67.0204L163.506 64.6968V84.2716H106.131V71.8522Z" fill="#52526B"/>
<path fill-rule="evenodd" clip-rule="evenodd" d="M48.7769 74.1467H50.7594C52.8642 74.1467 54.7991 75.3024 55.797 77.1556C56.7793 78.98 58.6712 80.1306 60.7429 80.1638L64.3535 80.2217C64.971 81.2994 65.9406 82.2294 67.4769 82.9216H48.7769V74.1467Z" fill="#1A170F"/>
<path fill-rule="evenodd" clip-rule="evenodd" d="M12.1274 74.1467H10.3994C8.26488 74.1467 6.4276 75.6546 6.01121 77.7481C5.73712 79.1262 4.53842 80.1262 3.13351 80.1487L-1.42422 80.2217C-2.04174 81.2994 -3.01129 82.2294 -4.54766 82.9216H12.1274V74.1467Z" fill="#1A170F"/>
</g>
<path fill-rule="evenodd" clip-rule="evenodd" d="M98.2241 32.2848C109.451 14.242 129.196 3.27249 150.446 3.27249H162.763C172.852 3.27249 181.767 9.83577 184.765 19.4691L187.639 28.7069C188.401 31.1586 186.569 33.6472 184.002 33.6472H98.981C98.2816 33.6472 97.8547 32.8786 98.2241 32.2848Z" fill="#52526B"/>
<path fill-rule="evenodd" clip-rule="evenodd" d="M140.276 5.29745H156.518C160.301 5.29745 163.703 7.70646 164.626 11.3751C165.942 16.6044 166.744 21.8294 167.292 27.0522C167.561 29.6068 165.53 31.7988 162.961 31.7988H143.2C142.805 24.1731 142.193 15.1848 140.276 5.29745Z" fill="#E1DBFE"/>
<mask id="mask4" mask-type="alpha" maskUnits="userSpaceOnUse" x="140" y="5" width="28" height="27">
<path fill-rule="evenodd" clip-rule="evenodd" d="M140.276 5.29745H156.518C160.301 5.29745 163.703 7.70646 164.626 11.3751C165.942 16.6044 166.744 21.8294 167.292 27.0522C167.561 29.6068 165.53 31.7988 162.961 31.7988H143.2C142.805 24.1731 142.193 15.1848 140.276 5.29745Z" fill="white"/>
</mask>
<g mask="url(#mask4)">
<path fill-rule="evenodd" clip-rule="evenodd" d="M138.926 6.64743H155.168C158.951 6.64743 162.353 9.05644 163.276 12.7251C164.592 17.9544 165.394 23.1793 165.942 28.4022C166.211 30.9568 164.18 33.1488 161.611 33.1488H141.85C141.454 25.5231 140.843 16.5348 138.926 6.64743Z" fill="white"/>
</g>
<path fill-rule="evenodd" clip-rule="evenodd" d="M165.251 5.29745C173.02 5.29745 179.848 10.4468 181.984 17.9163L184.715 27.4676C185.335 29.638 183.706 31.7988 181.448 31.7988H170.199C169.804 24.1731 168.403 15.106 165.251 5.29745Z" fill="#E1DBFE"/>
<mask id="mask5" mask-type="alpha" maskUnits="userSpaceOnUse" x="165" y="5" width="20" height="27">
<path fill-rule="evenodd" clip-rule="evenodd" d="M165.251 5.29745C173.02 5.29745 179.848 10.4468 181.984 17.9163L184.715 27.4676C185.335 29.638 183.706 31.7988 181.448 31.7988H170.199C169.804 24.1731 168.403 15.106 165.251 5.29745Z" fill="white"/>
</mask>
<g mask="url(#mask5)">
<path fill-rule="evenodd" clip-rule="evenodd" d="M163.901 6.64743C171.67 6.64743 178.498 11.7967 180.633 19.2663L183.364 28.8176C183.985 30.988 182.355 33.1488 180.098 33.1488H168.849C168.454 25.5231 167.053 16.456 163.901 6.64743Z" fill="white"/>
</g>
<path fill-rule="evenodd" clip-rule="evenodd" d="M108.057 21.5023C114.435 11.4139 125.537 5.29745 137.472 5.29745C139.266 13.774 140.075 23.5887 140.307 31.7988H102.977C102.357 31.7988 101.98 31.1152 102.311 30.591L108.057 21.5023Z" fill="#E1DBFE"/>
<mask id="mask6" mask-type="alpha" maskUnits="userSpaceOnUse" x="102" y="5" width="39" height="27">
<path fill-rule="evenodd" clip-rule="evenodd" d="M108.057 21.5023C114.435 11.4139 125.537 5.29745 137.472 5.29745C139.266 13.774 140.075 23.5887 140.307 31.7988H102.977C102.357 31.7988 101.98 31.1152 102.311 30.591L108.057 21.5023Z" fill="white"/>
</mask>
<g mask="url(#mask6)">
<path fill-rule="evenodd" clip-rule="evenodd" d="M106.707 22.8523C113.084 12.7638 124.187 6.64743 136.122 6.64743C137.916 15.124 138.725 24.9386 138.956 33.1488H101.627C101.007 33.1488 100.63 32.4651 100.961 31.941L106.707 22.8523Z" fill="white"/>
</g>
<path fill-rule="evenodd" clip-rule="evenodd" d="M44.0345 29.577C53.2536 14.1026 69.9367 4.62245 87.9492 4.62245L113.346 4.62245C102.027 8.94971 96.0065 21.9024 92.2941 30.766H44.7101C44.0999 30.766 43.7222 30.1012 44.0345 29.577Z" fill="#E1DBFE"/>
<mask id="mask7" mask-type="alpha" maskUnits="userSpaceOnUse" x="43" y="4" width="71" height="27">
<path fill-rule="evenodd" clip-rule="evenodd" d="M44.0345 29.577C53.2536 14.1026 69.9367 4.62245 87.9492 4.62245L113.346 4.62245C102.027 8.94971 96.0065 21.9024 92.2941 30.766H44.7101C44.0999 30.766 43.7222 30.1012 44.0345 29.577Z" fill="white"/>
</mask>
<g mask="url(#mask7)">
<path fill-rule="evenodd" clip-rule="evenodd" d="M41.3343 30.9271C50.5534 15.4526 67.2365 5.97247 85.249 5.97247L107.946 5.97247C99.3263 10.9747 93.3063 23.2524 89.5939 32.116H42.0099C41.3997 32.116 41.022 31.4513 41.3343 30.9271Z" fill="white"/>
<rect x="43.3569" y="27.5723" width="50.6245" height="4.72495" fill="#6F6F71"/>
</g>
<path fill-rule="evenodd" clip-rule="evenodd" d="M15.2546 46.0582C15.5191 45.106 16.386 44.447 17.3743 44.447H48.5823C50.0372 44.447 51.0915 45.834 50.7021 47.2358L48.4114 55.4822C48.2176 56.18 47.6927 56.7377 47.0078 56.9735L29.0102 63.1699C28.492 63.3483 27.9258 63.3268 27.4225 63.1097L14.0889 57.357C13.0794 56.9214 12.5464 55.8075 12.8407 54.7482L15.2546 46.0582Z" fill="#858585"/>
<path fill-rule="evenodd" clip-rule="evenodd" d="M13.2127 46.0263C13.4881 45.09 14.3474 44.447 15.3233 44.447H46.5116C47.9803 44.447 49.0366 45.8587 48.6222 47.2678L46.4024 54.8152C46.1985 55.5083 45.6674 56.0571 44.9815 56.2835L26.9207 62.2462C26.4192 62.4118 25.8748 62.3914 25.387 62.1887L12.1261 56.6796C11.0886 56.2486 10.5425 55.105 10.8595 54.0272L13.2127 46.0263Z" fill="#6F6F71"/>
<path fill-rule="evenodd" clip-rule="evenodd" d="M53.5019 59.2969H56.8769C58.7408 59.2969 60.2518 60.8079 60.2518 62.6718C60.2518 64.5358 58.7408 66.0468 56.8769 66.0468H53.5019C51.638 66.0468 50.127 64.5358 50.127 62.6718C50.127 60.8079 51.638 59.2969 53.5019 59.2969Z" fill="#DCF0FE"/>
<mask id="mask8" mask-type="alpha" maskUnits="userSpaceOnUse" x="50" y="59" width="11" height="8">
<path fill-rule="evenodd" clip-rule="evenodd" d="M53.5019 59.2969H56.8769C58.7408 59.2969 60.2518 60.8079 60.2518 62.6718C60.2518 64.5358 58.7408 66.0468 56.8769 66.0468H53.5019C51.638 66.0468 50.127 64.5358 50.127 62.6718C50.127 60.8079 51.638 59.2969 53.5019 59.2969Z" fill="white"/>
</mask>
<g mask="url(#mask8)">
<path fill-rule="evenodd" clip-rule="evenodd" d="M55.5268 59.2969H58.9018C60.7657 59.2969 62.2767 60.8079 62.2767 62.6718C62.2767 64.5358 60.7657 66.0468 58.9018 66.0468H55.5268C53.6629 66.0468 52.1519 64.5358 52.1519 62.6718C52.1519 60.8079 53.6629 59.2969 55.5268 59.2969Z" fill="white"/>
</g>
<path fill-rule="evenodd" clip-rule="evenodd" d="M7.27179 77.8164C6.7594 75.9718 8.14659 74.1467 10.061 74.1467H48.455C50.2756 74.1467 51.9082 75.268 52.5618 76.9672L54.8519 82.9216H63.6072L60.9631 83.9408C56.9237 85.498 52.6316 86.2966 48.3024 86.2966H46.4731C46.0493 86.2966 45.6346 86.1742 45.2787 85.9442L44.7128 85.5783C44.075 85.166 43.3316 84.9466 42.572 84.9466H41.2599C40.6274 84.9466 40.0454 85.2917 39.7419 85.8466C39.5902 86.124 39.2992 86.2966 38.9829 86.2966H21.585C21.1669 86.2966 20.7648 86.1354 20.4624 85.8466C19.8577 85.2689 19.0536 84.9466 18.2173 84.9466H17.0445C16.4121 84.9466 15.8266 85.298 15.5231 85.8529C15.3746 86.1246 15.0879 86.2966 14.7782 86.2966C11.7341 86.2966 9.06356 84.2667 8.24882 81.3337L7.27179 77.8164Z" fill="#858585"/>
<mask id="mask9" mask-type="alpha" maskUnits="userSpaceOnUse" x="7" y="74" width="57" height="13">
<path fill-rule="evenodd" clip-rule="evenodd" d="M7.27179 77.8164C6.7594 75.9718 8.14659 74.1467 10.061 74.1467H48.455C50.2756 74.1467 51.9082 75.268 52.5618 76.9672L54.8519 82.9216H63.6072L60.9631 83.9408C56.9237 85.498 52.6316 86.2966 48.3024 86.2966H46.4731C46.0493 86.2966 45.6346 86.1742 45.2787 85.9442L44.7128 85.5783C44.075 85.166 43.3316 84.9466 42.572 84.9466H41.2599C40.6274 84.9466 40.0454 85.2917 39.7419 85.8466C39.5902 86.124 39.2992 86.2966 38.9829 86.2966H21.585C21.1669 86.2966 20.7648 86.1354 20.4624 85.8466C19.8577 85.2689 19.0536 84.9466 18.2173 84.9466H17.0445C16.4121 84.9466 15.8266 85.298 15.5231 85.8529C15.3746 86.1246 15.0879 86.2966 14.7782 86.2966C11.7341 86.2966 9.06356 84.2667 8.24882 81.3337L7.27179 77.8164Z" fill="white"/>
</mask>
<g mask="url(#mask9)">
<path fill-rule="evenodd" clip-rule="evenodd" d="M12.9827 87.4157C11.6454 83.1837 14.8049 78.8717 19.2431 78.8717H39.8371C45.1316 78.8717 49.7991 82.3445 51.3205 87.4157H12.9827Z" fill="#6F6F71"/>
</g>
<rect x="125.707" y="43.097" width="12.1499" height="2.69997" rx="1.34999" fill="black" fill-opacity="0.252021"/>
<rect x="125.707" y="42.4221" width="12.1499" height="2.69997" rx="1.34999" fill="#E3E4FF"/>
<path fill-rule="evenodd" clip-rule="evenodd" d="M158.781 44.447C158.781 43.7015 159.386 43.097 160.131 43.097H165.531C166.277 43.097 166.881 43.7015 166.881 44.447C166.881 45.1926 166.277 45.797 165.531 45.797H160.131C159.386 45.797 158.781 45.1926 158.781 44.447Z" fill="black" fill-opacity="0.252021"/>
<path fill-rule="evenodd" clip-rule="evenodd" d="M158.781 43.772C158.781 43.0265 159.386 42.4221 160.131 42.4221H165.531C166.277 42.4221 166.881 43.0265 166.881 43.772C166.881 44.5176 166.277 45.122 165.531 45.122H160.131C159.386 45.122 158.781 44.5176 158.781 43.772Z" fill="#E3E4FF"/>
<path fill-rule="evenodd" clip-rule="evenodd" d="M102.081 28.5217C103.296 25.1189 106.518 22.8473 110.131 22.8473H118.049C118.923 22.8473 119.631 23.5557 119.631 24.4296V32.0947C119.631 33.3249 118.634 34.3221 117.404 34.3221H99.9104C98.4999 34.3221 97.3564 33.1787 97.3564 31.7681C97.3564 30.6186 98.1244 29.6107 99.2327 29.3057L102.081 28.5217Z" fill="#E1E1F0"/>
</svg>
