<svg width="60" height="60" viewBox="0 0 60 60" fill="none" xmlns="http://www.w3.org/2000/svg">
<g clip-path="url(#clip0)">
<path d="M4.74151 36.7196C4.97039 36.9484 5.27022 37.0629 5.57006 37.0629C5.86989 37.0629 6.16973 36.9484 6.39861 36.7196L24.136 18.9826L34.8742 29.7213C35.0939 29.941 35.3924 30.0646 35.7027 30.0646C36.0136 30.0646 36.3116 29.941 36.5317 29.7213L42.7601 23.4925C43.2178 23.0352 43.2178 22.2932 42.7601 21.8354C42.3023 21.3777 41.5607 21.3777 41.103 21.8354L35.7027 27.2352L24.9645 16.4965C24.7444 16.2768 24.4464 16.1532 24.136 16.1532C23.8252 16.1532 23.5272 16.2768 23.307 16.4965L5.57006 34.2339L2.82897 31.4928L24.136 10.1863L34.8746 20.9249C35.0944 21.1446 35.3924 21.2682 35.7032 21.2682C36.014 21.2682 36.312 21.1446 36.5317 20.9249L50.6839 6.77228C51.1417 6.31497 51.1417 5.57294 50.6839 5.11517L50.2523 4.68305L57.1704 2.82957L55.317 9.74773L55.0821 9.51336C54.8624 9.29363 54.5644 9.17004 54.2536 9.17004C53.9428 9.17004 53.6448 9.29363 53.425 9.51336L47.7323 15.2061C47.2745 15.6639 47.2745 16.4059 47.7323 16.8637C48.1901 17.321 48.9316 17.321 49.3898 16.8637L54.254 11.9995L55.0949 12.8404C55.3911 13.1361 55.8223 13.2524 56.227 13.1439C56.6312 13.0354 56.9471 12.7195 57.0555 12.3153L59.96 1.4755C60.0685 1.07084 59.9527 0.639629 59.6565 0.343457C59.3608 0.0472842 58.9292 -0.068072 58.525 0.03996L47.6851 2.94446C47.2809 3.05295 46.9651 3.36881 46.8566 3.77347C46.7481 4.17768 46.8639 4.60935 47.1596 4.90506L48.1983 5.94373L35.7032 18.4388L24.9645 7.70016C24.5072 7.24286 23.7652 7.2424 23.3074 7.70016L0.343322 30.6643C-0.114441 31.122 -0.114441 31.8641 0.343322 32.3218L4.74151 36.7196Z" fill="#E2211C"/>
<path d="M58.828 57.6562H57.6561V22.2267C57.6561 21.5794 57.1315 21.0548 56.4843 21.0548H49.9218C49.2745 21.0548 48.7499 21.5794 48.7499 22.2267V57.6562H46.0546V36.2109C46.0546 35.5641 45.53 35.039 44.8827 35.039H38.3202C37.673 35.039 37.1484 35.5641 37.1484 36.2109V57.6562H34.453V42.4218C34.453 41.775 33.9285 41.25 33.2812 41.25H26.7187C26.0714 41.25 25.5468 41.775 25.5468 42.4218V57.6562H22.8515V36.2109C22.8515 35.5641 22.3269 35.039 21.6796 35.039H15.1172C14.4699 35.039 13.9453 35.5641 13.9453 36.2109V57.6562H11.25V46.9139C11.25 46.267 10.7254 45.742 10.0781 45.742H3.51562C2.86834 45.742 2.34374 46.267 2.34374 46.9139V57.6562H1.17187C0.524596 57.6562 0 58.1812 0 58.828C0 59.4753 0.524596 59.9999 1.17187 59.9999H58.828C59.4753 59.9999 59.9999 59.4753 59.9999 58.828C59.9999 58.1812 59.4753 57.6562 58.828 57.6562ZM4.68749 57.6562V48.0857H8.90623V57.6562H4.68749ZM16.289 57.6562V37.3828H20.5078V57.6562H16.289ZM27.8906 57.6562V43.5937H32.1093V57.6562H27.8906ZM39.4921 57.6562V37.3828H43.7108V57.6562H39.4921ZM51.0936 57.6562V23.3986H55.3124V57.6562H51.0936Z" fill="#E2211C"/>
<path d="M44.4175 18.5202C44.1996 18.7381 44.0742 19.0407 44.0742 19.3488C44.0742 19.6582 44.1996 19.9594 44.4175 20.1773C44.6354 20.3966 44.9376 20.5206 45.2461 20.5206C45.5542 20.5206 45.8563 20.3966 46.0746 20.1773C46.2935 19.9594 46.418 19.6573 46.418 19.3488C46.418 19.0407 46.2935 18.7395 46.0746 18.5202C45.8563 18.3023 45.5542 18.1769 45.2461 18.1769C44.9376 18.1769 44.6354 18.3023 44.4175 18.5202Z" fill="#E2211C"/>
</g>
<defs>
<clipPath id="clip0">
<rect width="60" height="60" fill="white"/>
</clipPath>
</defs>
</svg>
