<svg width="20" height="22" viewBox="0 0 20 22" fill="none" xmlns="http://www.w3.org/2000/svg">
<path d="M1 21L0.424712 20.8296C0.370944 21.0111 0.405984 21.2073 0.519244 21.359C0.632504 21.5107 0.810702 21.6 1 21.6L1 21ZM19 21V21.6C19.1893 21.6 19.3675 21.5107 19.4808 21.359C19.594 21.2073 19.6291 21.0111 19.5753 20.8296L19 21ZM14.4 6C14.4 8.43005 12.4301 10.4 10 10.4V11.6C13.0928 11.6 15.6 9.09279 15.6 6H14.4ZM10 10.4C7.56995 10.4 5.6 8.43005 5.6 6H4.4C4.4 9.09279 6.90721 11.6 10 11.6V10.4ZM5.6 6C5.6 3.56995 7.56995 1.6 10 1.6V0.4C6.90721 0.4 4.4 2.90721 4.4 6H5.6ZM10 1.6C12.4301 1.6 14.4 3.56995 14.4 6H15.6C15.6 2.90721 13.0928 0.4 10 0.4V1.6ZM1.57529 21.1704C2.70965 17.3412 6.0696 14.6 10 14.6V13.4C5.48397 13.4 1.69406 16.5446 0.424712 20.8296L1.57529 21.1704ZM10 14.6C13.9304 14.6 17.2903 17.3412 18.4247 21.1704L19.5753 20.8296C18.3059 16.5446 14.516 13.4 10 13.4V14.6ZM1 21.6H19V20.4H1V21.6Z" fill="#595959"/>
</svg>
